<svg width="1000" height="1000" viewBox="0 0 1000 1000" fill="none" xmlns="http://www.w3.org/2000/svg">
<g clip-path="url(#clip0_9_4599)">
<path d="M1000 0H0V1000H1000V0Z" fill="none"/>
<path d="M756.5 605.1C722.6 605.3 697.2 590.4 676.1 569.5C672 565.3 668.2 559.8 664.6 553.7C646.5 522.6 641.6 486.5 649.9 452.2C663.5 395.8 693.2 294.7 744.8 220.8C750.2 213 762.8 213 768.2 220.8C819.8 294.7 849.5 395.8 863.1 452.2C871.4 486.6 866.5 522.6 848.4 553.7C844.8 559.8 841 565.3 836.9 569.5C815.8 590.3 790.4 605.3 756.5 605.1Z" stroke="#00233A" stroke-width="8" stroke-miterlimit="10" stroke-linecap="round" stroke-linejoin="round"/>
<path d="M756.5 532.9L809.9 494.4" stroke="#00233A" stroke-width="8" stroke-miterlimit="10" stroke-linecap="round" stroke-linejoin="round"/>
<path d="M756.5 479.6L708.9 442.8" stroke="#00233A" stroke-width="8" stroke-miterlimit="10" stroke-linecap="round" stroke-linejoin="round"/>
<path d="M756.5 747.5V389.5" stroke="#00233A" stroke-width="8" stroke-miterlimit="10" stroke-linecap="round" stroke-linejoin="round"/>
<path d="M259.7 645.999C283.9 646.199 301.9 634.399 317 617.999C319.9 614.699 322.7 610.399 325.2 605.499C338.1 581.099 341.6 552.699 335.7 525.699C326 481.399 304.8 401.999 268.1 343.899C264.2 337.799 255.3 337.799 251.4 343.899C214.6 401.999 193.5 481.399 183.8 525.699C177.9 552.699 181.4 580.999 194.3 605.499C196.8 610.299 199.6 614.599 202.5 617.999C217.4 634.499 235.5 646.199 259.7 645.999Z" stroke="#00233A" stroke-width="8" stroke-miterlimit="10" stroke-linecap="round" stroke-linejoin="round"/>
<path d="M259.7 594.699L221.6 567.199" stroke="#00233A" stroke-width="8" stroke-miterlimit="10" stroke-linecap="round" stroke-linejoin="round"/>
<path d="M259.7 556.7L293.5 530.5" stroke="#00233A" stroke-width="8" stroke-miterlimit="10" stroke-linecap="round" stroke-linejoin="round"/>
<path d="M313 622.1V637.2C313 656 328.3 671.3 347.1 671.3H398.3C417.1 671.3 432.4 656 432.4 637.2V535.2C432.4 516.4 417.1 501.1 398.3 501.1H347.1C341.2 501.1 335.7 502.6 330.8 505.2" stroke="#00233A" stroke-width="8" stroke-miterlimit="10" stroke-linecap="round" stroke-linejoin="round"/>
<path d="M372.7 645.999L347.4 622.699" stroke="#00233A" stroke-width="8" stroke-miterlimit="10" stroke-linecap="round" stroke-linejoin="round"/>
<path d="M372.7 607.299L400.8 594.699" stroke="#00233A" stroke-width="8" stroke-miterlimit="10" stroke-linecap="round" stroke-linejoin="round"/>
<path d="M259.7 747.5V492.5" stroke="#00233A" stroke-width="8" stroke-miterlimit="10" stroke-linecap="round" stroke-linejoin="round"/>
<path d="M372.7 567.5V747.5" stroke="#00233A" stroke-width="8" stroke-miterlimit="10" stroke-linecap="round" stroke-linejoin="round"/>
<path d="M249 219.399L270.7 224.299L276.6 204.699" stroke="#00233A" stroke-width="8" stroke-miterlimit="10" stroke-linecap="round" stroke-linejoin="round"/>
<path d="M346.5 181L356.3 193.4L368.3 185.3" stroke="#00233A" stroke-width="8" stroke-miterlimit="10" stroke-linecap="round" stroke-linejoin="round"/>
<path d="M439.1 186.8L454 192L459.8 178.6" stroke="#00233A" stroke-width="8" stroke-miterlimit="10" stroke-linecap="round" stroke-linejoin="round"/>
<path d="M656 327.8C653.6 327.8 651.2 327.8 648.8 327.8C644 327.8 639.5 323.9 638.9 319C637.2 302.4 637.2 285.6 638.9 268.9C639.5 264 644 260.1 648.8 260.1C651.2 260.1 653.6 260.1 656 260.1C660.8 260.1 665.3 264 665.9 268.9C667.6 285.5 667.6 302.3 665.9 319C665.4 323.8 660.8 327.8 656 327.8Z" fill="#9BA589"/>
<path d="M656 327.8C653.6 327.8 651.2 327.8 648.8 327.8C644 327.8 639.5 323.9 638.9 319C637.2 302.4 637.2 285.6 638.9 268.9C639.5 264 644 260.1 648.8 260.1C651.2 260.1 653.6 260.1 656 260.1C660.8 260.1 665.3 264 665.9 268.9C667.6 285.5 667.6 302.3 665.9 319C665.4 323.8 660.8 327.8 656 327.8Z" stroke="#3E3442" stroke-width="10" stroke-miterlimit="10" stroke-linecap="round" stroke-linejoin="round"/>
<path d="M347.4 327.8C345 327.8 342.6 327.8 340.2 327.8C335.4 327.8 330.9 323.9 330.3 319C328.6 302.4 328.6 285.6 330.3 268.9C330.9 264 335.4 260.1 340.2 260.1C342.6 260.1 345 260.1 347.4 260.1C352.2 260.1 356.7 264 357.3 268.9C359 285.5 359 302.3 357.3 319C356.8 323.8 352.2 327.8 347.4 327.8Z" fill="#9BA589"/>
<path d="M347.4 327.8C345 327.8 342.6 327.8 340.2 327.8C335.4 327.8 330.9 323.9 330.3 319C328.6 302.4 328.6 285.6 330.3 268.9C330.9 264 335.4 260.1 340.2 260.1C342.6 260.1 345 260.1 347.4 260.1C352.2 260.1 356.7 264 357.3 268.9C359 285.5 359 302.3 357.3 319C356.8 323.8 352.2 327.8 347.4 327.8Z" stroke="#3E3442" stroke-width="10" stroke-miterlimit="10" stroke-linecap="round" stroke-linejoin="round"/>
<path d="M359.5 689.9L335.7 681.4C301.4 669.1 280.1 627 286.1 583.6L294.4 523.9C297.1 504.7 310.6 490.6 326.4 490.6H359.5V689.9Z" stroke="#3E3442" stroke-width="10" stroke-miterlimit="10" stroke-linecap="round" stroke-linejoin="round"/>
<path d="M345.6 583.099C355.9 578.599 363.7 574.599 369.7 571.199V477.899H326.4C305.5 477.899 287.8 496.299 284.3 521.699L276 581.399C275.4 585.499 275.1 589.499 274.9 593.499C290.4 595.599 316.2 595.899 345.6 583.099Z" stroke="#3E3442" stroke-width="10" stroke-miterlimit="10" stroke-linecap="round" stroke-linejoin="round"/>
<path d="M359.5 689.9L335.7 681.4C301.4 669.1 280.1 627 286.1 583.6L294.4 523.9C297.1 504.7 310.6 490.6 326.4 490.6H359.5V689.9Z" stroke="#3E3442" stroke-width="10" stroke-miterlimit="10" stroke-linecap="round" stroke-linejoin="round"/>
<path d="M359.5 689.9L335.7 681.4C301.4 669.1 280.1 627 286.1 583.6L294.4 523.9C297.1 504.7 310.6 490.6 326.4 490.6H359.5V689.9Z" fill="#F26161"/>
<path opacity="0.3" d="M294.4 527.8L286.1 587.5C285.2 593.9 284.9 600.2 285.2 606.4C287.3 606.5 289.3 606.6 291.4 606.6C310.9 606.6 330.2 602.5 348.8 594.4C352.6 592.8 356.1 591.1 359.5 589.5V494.5H326.4C310.6 494.5 297 508.6 294.4 527.8Z" fill="#994A4A"/>
<path d="M359.5 689.9L335.7 681.4C301.4 669.1 280.1 627 286.1 583.6L294.4 523.9C297.1 504.7 310.6 490.6 326.4 490.6H359.5V689.9Z" stroke="#3E3442" stroke-width="10" stroke-miterlimit="10" stroke-linecap="round" stroke-linejoin="round"/>
<path d="M345.6 583.099C355.9 578.599 363.7 574.599 369.7 571.199V477.899H326.4C305.5 477.899 287.8 496.299 284.3 521.699L276 581.399C275.4 585.499 275.1 589.499 274.9 593.499C290.4 595.599 316.2 595.899 345.6 583.099Z" fill="#604957"/>
<path opacity="0.26" d="M282.4 586.999L290.7 527.299C294.2 501.899 311.9 483.499 332.8 483.499H369.7V477.899H326.4C305.5 477.899 287.8 496.299 284.3 521.699L276 581.399C275.4 585.499 275.1 589.499 274.9 593.499C277 593.799 279.2 593.999 281.6 594.199C281.8 591.799 282.1 589.399 282.4 586.999Z" fill="#725865"/>
<path d="M345.6 583.099C355.9 578.599 363.7 574.599 369.7 571.199V477.899H326.4C305.5 477.899 287.8 496.299 284.3 521.699L276 581.399C275.4 585.499 275.1 589.499 274.9 593.499C290.4 595.599 316.2 595.899 345.6 583.099Z" stroke="#3E3442" stroke-width="10" stroke-miterlimit="10" stroke-linecap="round" stroke-linejoin="round"/>
<path d="M291.4 584.599C289.5 584.599 287.6 584.599 285.7 584.499C285.8 583.899 285.8 583.399 285.9 582.799L294.2 523.099C297 502.699 310.6 487.899 326.4 487.899H359.7V565.299C354.5 568.099 348.4 570.999 341.6 573.999C325.3 580.999 308.4 584.599 291.4 584.599Z" stroke="#3E3442" stroke-width="3" stroke-miterlimit="10" stroke-linecap="round" stroke-linejoin="round" stroke-dasharray="5 5"/>
<path d="M638.4 689.9L662.2 681.4C696.5 669.1 717.8 627 711.8 583.6L703.5 523.9C700.8 504.7 687.3 490.6 671.5 490.6H638.4V689.9Z" stroke="#3E3442" stroke-width="10" stroke-miterlimit="10" stroke-linecap="round" stroke-linejoin="round"/>
<path d="M652.3 583.099C642 578.599 634.2 574.599 628.2 571.199V477.899H671.5C692.4 477.899 710.1 496.299 713.6 521.699L721.9 581.399C722.5 585.499 722.8 589.499 723 593.499C707.5 595.599 681.7 595.899 652.3 583.099Z" stroke="#3E3442" stroke-width="10" stroke-miterlimit="10" stroke-linecap="round" stroke-linejoin="round"/>
<path d="M638.4 689.9L662.2 681.4C696.5 669.1 717.8 627 711.8 583.6L703.5 523.9C700.8 504.7 687.3 490.6 671.5 490.6H638.4V689.9Z" stroke="#3E3442" stroke-width="10" stroke-miterlimit="10" stroke-linecap="round" stroke-linejoin="round"/>
<path d="M638.4 689.9L662.2 681.4C696.5 669.1 717.8 627 711.8 583.6L703.5 523.9C700.8 504.7 687.3 490.6 671.5 490.6H638.4V689.9Z" fill="#F26161"/>
<path opacity="0.3" d="M711.8 587.5L703.5 527.8C700.8 508.6 687.3 494.5 671.5 494.5H638.4V589.5C641.8 591.1 645.3 592.7 649.1 594.4C667.7 602.5 687 606.6 706.5 606.6C708.6 606.6 710.7 606.5 712.7 606.4C713 600.2 712.7 593.9 711.8 587.5Z" fill="#994A4A"/>
<path d="M638.4 689.9L662.2 681.4C696.5 669.1 717.8 627 711.8 583.6L703.5 523.9C700.8 504.7 687.3 490.6 671.5 490.6H638.4V689.9Z" stroke="#3E3442" stroke-width="10" stroke-miterlimit="10" stroke-linecap="round" stroke-linejoin="round"/>
<path d="M652.3 583.099C642 578.599 634.2 574.599 628.2 571.199V477.899H671.5C692.4 477.899 710.1 496.299 713.6 521.699L721.9 581.399C722.5 585.499 722.8 589.499 723 593.499C707.5 595.599 681.7 595.899 652.3 583.099Z" fill="#604957"/>
<path opacity="0.26" d="M664.5 483.299C685.4 483.299 703.1 501.399 706.6 526.399L714.9 585.099C715.3 587.799 715.6 590.599 715.7 593.299C718.3 593.099 720.7 592.899 722.9 592.599C722.7 588.699 722.4 584.699 721.8 580.699L713.5 521.999C710 496.999 692.3 478.899 671.4 478.899H628.1V483.299H664.5Z" fill="#725865"/>
<path d="M706.5 584.6C689.5 584.6 672.6 581 656.3 573.9C649.5 570.9 643.4 568 638.2 565.2V487.8H671.5C687.3 487.8 700.9 502.6 703.7 523L712 582.7C712.1 583.3 712.2 583.8 712.2 584.4C710.3 584.6 708.4 584.6 706.5 584.6Z" stroke="#3E3442" stroke-width="3" stroke-miterlimit="10" stroke-linecap="round" stroke-linejoin="round" stroke-dasharray="5 5"/>
<path d="M652.3 583.099C642 578.599 634.2 574.599 628.2 571.199V477.899H671.5C692.4 477.899 710.1 496.299 713.6 521.699L721.9 581.399C722.5 585.499 722.8 589.499 723 593.499C707.5 595.599 681.7 595.899 652.3 583.099Z" stroke="#3E3442" stroke-width="10" stroke-miterlimit="10" stroke-linecap="round" stroke-linejoin="round"/>
<path d="M629.5 341.7C541.8 341.7 454.2 341.7 366.5 341.7C339.7 341.9 338.1 322.5 338.4 295.6C338.1 268.7 339.7 249.3 366.5 249.5C454.2 249.5 541.8 249.5 629.5 249.5C656.3 249.3 657.9 268.7 657.6 295.6C657.9 322.5 656.3 341.9 629.5 341.7Z" fill="#9BA589"/>
<path opacity="0.25" d="M657.7 295.6C657.7 293.5 657.7 291.5 657.7 289.5C657.6 313.1 654.3 329.6 629.6 329.4C541.9 329.4 454.3 329.4 366.6 329.4C341.9 329.6 338.6 313.1 338.5 289.5C338.5 291.5 338.5 293.6 338.5 295.7C338.2 322.6 339.8 342 366.6 341.8C454.3 341.8 541.9 341.8 629.6 341.8C656.3 341.9 657.9 322.5 657.7 295.6Z" fill="#9BA589"/>
<path opacity="0.31" d="M338.4 295.6C338.4 297.7 338.4 299.8 338.4 301.8C338.6 278.2 341.9 261.7 366.5 261.9C454.2 261.9 541.8 261.9 629.5 261.9C654.2 261.7 657.5 278.2 657.6 301.8C657.6 299.8 657.6 297.7 657.6 295.6C657.9 268.7 656.3 249.3 629.5 249.5C541.8 249.5 454.2 249.5 366.5 249.5C339.8 249.3 338.2 268.7 338.4 295.6Z" fill="#9BA589"/>
<path d="M629.5 341.7C541.8 341.7 454.2 341.7 366.5 341.7C339.7 341.9 338.1 322.5 338.4 295.6C338.1 268.7 339.7 249.3 366.5 249.5C454.2 249.5 541.8 249.5 629.5 249.5C656.3 249.3 657.9 268.7 657.6 295.6C657.9 322.5 656.3 341.9 629.5 341.7Z" stroke="#3E3442" stroke-width="10" stroke-miterlimit="10" stroke-linecap="round" stroke-linejoin="round"/>
<path d="M584.9 246.1V313.9" stroke="#3E3442" stroke-width="14" stroke-miterlimit="10" stroke-linecap="round" stroke-linejoin="round"/>
<path d="M414.7 246.1V313.9" stroke="#3E3442" stroke-width="14" stroke-miterlimit="10" stroke-linecap="round" stroke-linejoin="round"/>
<path d="M658.3 440.799C656.1 429.199 652.9 417.899 648.9 407.099C625 343.299 565.4 301.899 499.8 301.899H499.7C434.1 301.899 374.6 343.299 350.6 407.099C346.6 417.899 343.4 429.099 341.2 440.799C329.8 512.399 325.7 584.399 330.9 655.699C335.6 707.099 379.5 750.899 418.9 750.899C472.8 750.899 526.6 750.899 580.5 750.899C620 750.899 663.9 707.099 668.5 655.699C673.8 584.399 669.7 512.399 658.3 440.799Z" fill="#F26161"/>
<path opacity="0.3" d="M668.6 643.499C663.9 693.899 620 736.699 580.6 736.699C526.7 736.699 472.9 736.699 419 736.699C379.5 736.699 335.6 693.799 331 643.499C329.7 626.299 329 609.099 328.8 591.899C328.6 614.899 329.3 637.799 331 660.599C335.7 710.999 379.6 753.799 419 753.799C472.9 753.799 526.7 753.799 580.6 753.799C620.1 753.799 664 710.899 668.6 660.599C670.3 637.699 671 614.799 670.8 591.899C670.6 609.099 669.9 626.399 668.6 643.499Z" fill="#994A4A"/>
<path opacity="0.39" d="M658.3 440.799C656.1 429.199 652.9 417.899 648.9 407.099C625 343.299 565.4 301.899 499.8 301.899H499.7C434.1 301.899 374.6 343.299 350.6 407.099C346.6 417.899 343.4 429.099 341.2 440.799C329.8 512.399 325.7 584.399 330.9 655.699C333.3 682.199 346.2 706.799 363.5 724.199C350.4 707.899 341 686.899 339.1 664.499C334.1 594.499 338 523.999 348.9 453.799C351 442.399 354 431.399 357.9 420.799C380.7 358.199 437.4 317.599 499.8 317.599H499.9C562.3 317.599 619 358.199 641.8 420.799C645.6 431.399 648.7 442.399 650.8 453.799C661.7 523.999 665.5 594.499 660.6 664.499C658.6 686.899 649.3 707.899 636.2 724.199C653.5 706.699 666.4 682.199 668.8 655.699C673.8 584.399 669.7 512.399 658.3 440.799Z" fill="#F26161"/>
<path d="M444.7 445C433.2 445 423.8 454.4 423.8 465.9C423.8 477.4 433.2 486.8 444.7 486.8C456.2 486.8 465.6 477.4 465.6 465.9C465.6 454.3 456.2 445 444.7 445ZM444.7 477.8C438.1 477.8 432.8 472.5 432.8 465.9C432.8 459.3 438.1 454 444.7 454C451.3 454 456.6 459.3 456.6 465.9C456.6 472.5 451.2 477.8 444.7 477.8Z" fill="#EAE6E5"/>
<path d="M444.7 445C433.2 445 423.8 454.4 423.8 465.9C423.8 477.4 433.2 486.8 444.7 486.8C456.2 486.8 465.6 477.4 465.6 465.9C465.6 454.3 456.2 445 444.7 445ZM444.7 477.8C438.1 477.8 432.8 472.5 432.8 465.9C432.8 459.3 438.1 454 444.7 454C451.3 454 456.6 459.3 456.6 465.9C456.6 472.5 451.2 477.8 444.7 477.8Z" stroke="#3E3442" stroke-width="2" stroke-miterlimit="10" stroke-linecap="round" stroke-linejoin="round"/>
<path d="M566 445C554.5 445 545.1 454.4 545.1 465.9C545.1 477.4 554.5 486.8 566 486.8C577.5 486.8 586.9 477.4 586.9 465.9C586.9 454.3 577.5 445 566 445ZM566 477.8C559.4 477.8 554.1 472.5 554.1 465.9C554.1 459.3 559.4 454 566 454C572.6 454 577.9 459.3 577.9 465.9C577.9 472.5 572.6 477.8 566 477.8Z" fill="#EAE6E5"/>
<path opacity="0.3" d="M656.3 437.999C656.4 437.899 656.5 437.799 656.7 437.699C654.7 428.899 652.1 420.399 649 412.099C625.1 348.299 565.5 306.899 499.9 306.899H499.8C434.2 306.899 374.7 348.299 350.7 412.099C347.6 420.399 345 428.899 343 437.699C343.1 437.799 343.2 437.899 343.4 437.999C387.8 475.999 450.3 482.899 499.9 482.899C549.3 482.899 611.9 475.999 656.3 437.999Z" fill="#994A4A"/>
<path opacity="0.3" d="M594.2 707.9H412.5C400.5 707.9 390.7 698.2 390.7 686.1V605.1C390.7 593.1 400.4 583.3 412.5 583.3H594.2C606.2 583.3 616 593 616 605.1V686.1C616 698.2 606.3 707.9 594.2 707.9Z" fill="#994A4A" stroke="#994A4A" stroke-width="10" stroke-miterlimit="10" stroke-linecap="round" stroke-linejoin="round"/>
<path d="M566 445C554.5 445 545.1 454.4 545.1 465.9C545.1 477.4 554.5 486.8 566 486.8C577.5 486.8 586.9 477.4 586.9 465.9C586.9 454.3 577.5 445 566 445ZM566 477.8C559.4 477.8 554.1 472.5 554.1 465.9C554.1 459.3 559.4 454 566 454C572.6 454 577.9 459.3 577.9 465.9C577.9 472.5 572.6 477.8 566 477.8Z" stroke="#3E3442" stroke-width="2" stroke-miterlimit="10" stroke-linecap="round" stroke-linejoin="round"/>
<path d="M594.2 697.9H412.5C400.5 697.9 390.7 688.2 390.7 676.1V595.1C390.7 583.1 400.4 573.3 412.5 573.3H594.2C606.2 573.3 616 583 616 595.1V676.1C616 688.2 606.3 697.9 594.2 697.9Z" fill="#725865"/>
<path opacity="0.4" d="M510.1 643.5L504.1 649.7C501.8 652.1 497.8 652.1 495.5 649.7L489.5 643.5C489 643 488.8 642.4 488.8 641.8V566.6C488.8 565.2 490 564.1 491.6 564.1H508C509.5 564.1 510.8 565.2 510.8 566.6V641.8C510.8 642.5 510.5 643.1 510.1 643.5Z" fill="#3E3442" stroke="#3E3442" stroke-width="6" stroke-miterlimit="10" stroke-linecap="round" stroke-linejoin="round"/>
<path d="M594.2 697.9H412.5C400.5 697.9 390.7 688.2 390.7 676.1V595.1C390.7 583.1 400.4 573.3 412.5 573.3H594.2C606.2 573.3 616 583 616 595.1V676.1C616 688.2 606.3 697.9 594.2 697.9Z" stroke="#3E3442" stroke-width="10" stroke-miterlimit="10" stroke-linecap="round" stroke-linejoin="round"/>
<path d="M412.5 685.9C407.1 685.9 402.7 681.5 402.7 676.1V595.1C402.7 589.7 407.1 585.3 412.5 585.3H594.2C599.6 585.3 604 589.7 604 595.1V676.1C604 681.5 599.6 685.9 594.2 685.9H412.5Z" stroke="#3E3442" stroke-width="3" stroke-linecap="round" stroke-linejoin="round" stroke-dasharray="4.99 4.99"/>
<path d="M658.3 440.799C656.1 429.199 652.9 417.899 648.9 407.099C625 343.299 565.4 301.899 499.8 301.899H499.7C434.1 301.899 374.6 343.299 350.6 407.099C346.6 417.899 343.4 429.099 341.2 440.799C329.8 512.399 325.7 584.399 330.9 655.699C335.6 707.099 379.5 750.899 418.9 750.899C472.8 750.899 526.6 750.899 580.5 750.899C620 750.899 663.9 707.099 668.5 655.699C673.8 584.399 669.7 512.399 658.3 440.799Z" stroke="#3E3442" stroke-width="10" stroke-miterlimit="10" stroke-linecap="round" stroke-linejoin="round"/>
<path d="M499.8 465.899C558.8 465.899 612 457.799 649.8 425.399C656.8 419.399 659.6 408.999 656.5 399.799C656.5 399.699 656.5 399.699 656.4 399.599C644.1 363.499 622.8 332.899 594.6 311.099C566.5 289.399 533.8 277.899 499.8 277.899C465.9 277.899 433.1 289.399 405 311.099C376.8 332.899 355.5 363.599 343.2 399.599C343.2 399.699 343.2 399.699 343.1 399.799C340 408.999 342.7 419.399 349.8 425.399C387.6 457.699 440.8 465.899 499.8 465.899Z" fill="#725865"/>
<path opacity="0.4" d="M453.1 362.799L447.1 369.499C444.8 372.099 440.8 372.099 438.5 369.499L432.5 362.799C432 362.299 431.8 361.599 431.8 360.999V278.699C431.8 277.199 433 275.899 434.6 275.899H451.1C452.6 275.899 453.9 277.099 453.9 278.699V360.999C453.8 361.599 453.6 362.299 453.1 362.799Z" fill="#3E3442" stroke="#3E3442" stroke-width="6" stroke-miterlimit="10" stroke-linecap="round" stroke-linejoin="round"/>
<path opacity="0.4" d="M565.5 362.799L559.5 369.499C557.2 372.099 553.2 372.099 550.9 369.499L544.9 362.799C544.4 362.299 544.2 361.599 544.2 360.999V278.699C544.2 277.199 545.4 275.899 547 275.899H563.5C565 275.899 566.3 277.099 566.3 278.699V360.999C566.2 361.599 565.9 362.299 565.5 362.799Z" fill="#3E3442" stroke="#3E3442" stroke-width="6" stroke-miterlimit="10" stroke-linecap="round" stroke-linejoin="round"/>
<path opacity="0.32" d="M649.8 416.4C612 448.7 558.8 456.9 499.8 456.9C440.8 456.9 387.6 448.8 349.8 416.4C345.8 413 343.2 408.2 342.3 403.1C340.8 411.4 343.6 420.1 349.8 425.4C387.6 457.7 440.8 465.9 499.8 465.9C558.8 465.9 612 457.8 649.8 425.4C656 420.1 658.9 411.4 657.3 403.1C656.3 408.3 653.7 413 649.8 416.4Z" fill="#725865"/>
<path opacity="0.58" d="M656.4 399.799C656.4 399.699 656.4 399.699 656.3 399.599C644 363.499 622.7 332.899 594.5 311.099C566.4 289.399 533.7 277.899 499.7 277.899C465.8 277.899 433 289.399 404.9 311.099C376.7 332.899 355.4 363.599 343.1 399.599C343.1 399.699 343.1 399.699 343 399.799C340 408.599 342.4 418.499 348.8 424.599C345.6 418.999 344.8 411.899 347 405.399C347 405.399 347 405.299 347.1 405.299C359.1 370.099 379.9 340.299 407.3 318.999C434.6 297.799 466.6 286.599 499.6 286.599C532.7 286.599 564.7 297.799 592 318.999C619.4 340.299 640.3 370.099 652.2 405.299V405.399C654.4 411.899 653.6 418.999 650.4 424.599C657 418.499 659.4 408.599 656.4 399.799Z" fill="#725865"/>
<path d="M499.8 465.899C558.8 465.899 612 457.799 649.8 425.399C656.8 419.399 659.6 408.999 656.5 399.799C656.5 399.699 656.5 399.699 656.4 399.599C644.1 363.499 622.8 332.899 594.6 311.099C566.5 289.399 533.8 277.899 499.8 277.899C465.9 277.899 433.1 289.399 405 311.099C376.8 332.899 355.5 363.599 343.2 399.599C343.2 399.699 343.2 399.699 343.1 399.799C340 408.999 342.7 419.399 349.8 425.399C387.6 457.699 440.8 465.899 499.8 465.899Z" stroke="#3E3442" stroke-width="10" stroke-miterlimit="10" stroke-linecap="round" stroke-linejoin="round"/>
<path d="M499.8 453.9C431.8 453.9 388 442.3 357.6 416.3C354.2 413.4 352.9 408.2 354.5 403.7V403.6C366 369.7 386 341.1 412.3 320.7C438.2 300.6 468.5 290 499.7 290C531 290 561.2 300.6 587.2 320.7C613.5 341.1 633.5 369.8 645 403.6V403.7C646.5 408.3 645.3 413.5 641.9 416.3C611.6 442.3 567.8 453.9 499.8 453.9Z" stroke="#3E3442" stroke-width="3" stroke-miterlimit="10" stroke-linecap="round" stroke-linejoin="round" stroke-dasharray="5 5"/>
<path d="M510.1 634.099L503.4 641.599C501.5 643.799 498.1 643.799 496.1 641.599L489.4 634.099C488.9 633.599 488.7 632.899 488.7 632.299V566.999C488.7 565.499 489.9 564.199 491.5 564.199H508C509.5 564.199 510.8 565.399 510.8 566.999V632.299C510.8 632.899 510.5 633.599 510.1 634.099Z" fill="#EDAB7A"/>
<path d="M510.1 634.099L504.1 640.799C501.8 643.399 497.8 643.399 495.5 640.799L489.5 634.099C489 633.599 488.8 632.899 488.8 632.299V566.999C488.8 565.499 490 564.199 491.6 564.199H508C509.5 564.199 510.8 565.399 510.8 566.999V632.299C510.8 632.899 510.5 633.599 510.1 634.099Z" stroke="#3E3442" stroke-width="6" stroke-miterlimit="10" stroke-linecap="round" stroke-linejoin="round"/>
<path d="M510.8 601.6H488.8V615.1H510.8V601.6Z" stroke="#3E3442" stroke-width="6" stroke-miterlimit="10" stroke-linecap="round" stroke-linejoin="round"/>
<path d="M499.8 602.799V615.099" stroke="#3E3442" stroke-width="6" stroke-miterlimit="10" stroke-linecap="round" stroke-linejoin="round"/>
<path d="M499.8 580.999C501.678 580.999 503.2 579.477 503.2 577.599C503.2 575.721 501.678 574.199 499.8 574.199C497.922 574.199 496.4 575.721 496.4 577.599C496.4 579.477 497.922 580.999 499.8 580.999Z" fill="#3E3442"/>
<path d="M499.8 594.999C501.678 594.999 503.2 593.477 503.2 591.599C503.2 589.721 501.678 588.199 499.8 588.199C497.922 588.199 496.4 589.721 496.4 591.599C496.4 593.477 497.922 594.999 499.8 594.999Z" fill="#3E3442"/>
<path d="M499.8 628.4C501.678 628.4 503.2 626.877 503.2 625C503.2 623.122 501.678 621.6 499.8 621.6C497.922 621.6 496.4 623.122 496.4 625C496.4 626.877 497.922 628.4 499.8 628.4Z" fill="#3E3442"/>
<path d="M453.1 353.799L446.4 361.299C444.5 363.499 441.1 363.499 439.1 361.299L432.4 353.799C431.9 353.299 431.7 352.599 431.7 351.999V269.699C431.7 268.199 432.9 266.899 434.5 266.899H451C452.5 266.899 453.8 268.099 453.8 269.699V351.999C453.8 352.599 453.6 353.299 453.1 353.799Z" fill="#EDAB7A"/>
<path d="M453.1 353.799L447.1 360.499C444.8 363.099 440.8 363.099 438.5 360.499L432.5 353.799C432 353.299 431.8 352.599 431.8 351.999V269.699C431.8 268.199 433 266.899 434.6 266.899H451.1C452.6 266.899 453.9 268.099 453.9 269.699V351.999C453.8 352.599 453.6 353.299 453.1 353.799Z" stroke="#3E3442" stroke-width="6" stroke-miterlimit="10" stroke-linecap="round" stroke-linejoin="round"/>
<path opacity="0.6" d="M453.8 321.3H431.8V334.8H453.8V321.3Z" fill="#EDAB7A"/>
<path d="M453.8 321.3H431.8V334.8H453.8V321.3Z" stroke="#3E3442" stroke-width="6" stroke-miterlimit="10" stroke-linecap="round" stroke-linejoin="round"/>
<path d="M442.8 322.499V334.799" stroke="#3E3442" stroke-width="6" stroke-miterlimit="10" stroke-linecap="round" stroke-linejoin="round"/>
<path d="M442.8 300.699C444.678 300.699 446.2 299.177 446.2 297.299C446.2 295.422 444.678 293.899 442.8 293.899C440.922 293.899 439.4 295.422 439.4 297.299C439.4 299.177 440.922 300.699 442.8 300.699Z" fill="#3E3442"/>
<path d="M442.8 314.699C444.678 314.699 446.2 313.177 446.2 311.299C446.2 309.422 444.678 307.899 442.8 307.899C440.922 307.899 439.4 309.422 439.4 311.299C439.4 313.177 440.922 314.699 442.8 314.699Z" fill="#3E3442"/>
<path d="M442.8 348.1C444.678 348.1 446.2 346.578 446.2 344.7C446.2 342.822 444.678 341.3 442.8 341.3C440.922 341.3 439.4 342.822 439.4 344.7C439.4 346.578 440.922 348.1 442.8 348.1Z" fill="#3E3442"/>
<path d="M565.5 353.799L558.8 361.299C556.9 363.499 553.5 363.499 551.5 361.299L544.8 353.799C544.3 353.299 544.1 352.599 544.1 351.999V269.699C544.1 268.199 545.3 266.899 546.9 266.899H563.4C564.9 266.899 566.2 268.099 566.2 269.699V351.999C566.2 352.599 565.9 353.299 565.5 353.799Z" fill="#EDAB7A"/>
<path opacity="0.6" d="M566.2 321.3H544.2V334.8H566.2V321.3Z" fill="#EDAB7A"/>
<path d="M565.5 353.799L559.5 360.499C557.2 363.099 553.2 363.099 550.9 360.499L544.9 353.799C544.4 353.299 544.2 352.599 544.2 351.999V269.699C544.2 268.199 545.4 266.899 547 266.899H563.5C565 266.899 566.3 268.099 566.3 269.699V351.999C566.2 352.599 565.9 353.299 565.5 353.799Z" stroke="#3E3442" stroke-width="6" stroke-miterlimit="10" stroke-linecap="round" stroke-linejoin="round"/>
<path d="M442.8 286.699C444.678 286.699 446.2 285.177 446.2 283.299C446.2 281.422 444.678 279.899 442.8 279.899C440.922 279.899 439.4 281.422 439.4 283.299C439.4 285.177 440.922 286.699 442.8 286.699Z" fill="#3E3442"/>
<path d="M555.2 286.699C557.078 286.699 558.6 285.177 558.6 283.299C558.6 281.422 557.078 279.899 555.2 279.899C553.322 279.899 551.8 281.422 551.8 283.299C551.8 285.177 553.322 286.699 555.2 286.699Z" fill="#3E3442"/>
<path d="M442.8 273.6C444.678 273.6 446.2 272.078 446.2 270.2C446.2 268.322 444.678 266.8 442.8 266.8C440.922 266.8 439.4 268.322 439.4 270.2C439.4 272.078 440.922 273.6 442.8 273.6Z" fill="#3E3442"/>
<path d="M555.2 273.6C557.078 273.6 558.6 272.078 558.6 270.2C558.6 268.322 557.078 266.8 555.2 266.8C553.322 266.8 551.8 268.322 551.8 270.2C551.8 272.078 553.322 273.6 555.2 273.6Z" fill="#3E3442"/>
<path opacity="0.6" d="M566.2 321.3H544.2V334.8H566.2V321.3Z" fill="#EDAB7A"/>
<path d="M566.2 321.3H544.2V334.8H566.2V321.3Z" stroke="#3E3442" stroke-width="6" stroke-miterlimit="10" stroke-linecap="round" stroke-linejoin="round"/>
<path d="M555.2 322.5V334.8" stroke="#3E3442" stroke-width="6" stroke-miterlimit="10" stroke-linecap="round" stroke-linejoin="round"/>
<path d="M555.2 300.699C557.078 300.699 558.6 299.177 558.6 297.299C558.6 295.422 557.078 293.899 555.2 293.899C553.322 293.899 551.8 295.422 551.8 297.299C551.8 299.177 553.322 300.699 555.2 300.699Z" fill="#3E3442"/>
<path d="M555.2 314.699C557.078 314.699 558.6 313.177 558.6 311.299C558.6 309.422 557.078 307.899 555.2 307.899C553.322 307.899 551.8 309.422 551.8 311.299C551.8 313.177 553.322 314.699 555.2 314.699Z" fill="#3E3442"/>
<path d="M555.2 348.1C557.078 348.1 558.6 346.578 558.6 344.7C558.6 342.822 557.078 341.3 555.2 341.3C553.322 341.3 551.8 342.822 551.8 344.7C551.8 346.578 553.322 348.1 555.2 348.1Z" fill="#3E3442"/>
<path d="M520 439.4H478.5C474.5 439.4 471.3 436.2 471.3 432.2V383.2C471.3 379.2 474.5 376 478.5 376H520C524 376 527.2 379.2 527.2 383.2V432.2C527.3 436.1 524 439.4 520 439.4Z" fill="#826776"/>
<path opacity="0.32" d="M527.3 375.899H471.3V403.499H527.3V375.899Z" fill="#725865"/>
<path d="M520 439.4H478.5C474.5 439.4 471.3 436.2 471.3 432.2V383.2C471.3 379.2 474.5 376 478.5 376H520C524 376 527.2 379.2 527.2 383.2V432.2C527.3 436.1 524 439.4 520 439.4Z" stroke="#3E3442" stroke-width="6" stroke-miterlimit="10" stroke-linecap="round" stroke-linejoin="round"/>
<path d="M478.5 433.4C477.8 433.4 477.3 432.8 477.3 432.2V383.2C477.3 382.5 477.9 382 478.5 382H520C520.7 382 521.2 382.6 521.2 383.2V432.2C521.2 432.9 520.6 433.4 520 433.4H478.5Z" stroke="#3E3442" stroke-width="2" stroke-miterlimit="10" stroke-linecap="round" stroke-linejoin="round" stroke-dasharray="3 3"/>
<path d="M532.3 354.899H466.3V393.199H532.3V354.899Z" fill="#F26161"/>
<path d="M532.3 354.899H466.3V393.199H532.3V354.899Z" stroke="#3E3442" stroke-width="6" stroke-miterlimit="10" stroke-linecap="round" stroke-linejoin="round"/>
<path d="M542.1 534.599H453.9C449.4 534.599 445.7 530.899 445.7 526.399C445.7 521.899 449.4 518.199 453.9 518.199H542.1C546.6 518.199 550.3 521.899 550.3 526.399C550.3 530.899 546.7 534.599 542.1 534.599Z" fill="#725865"/>
<path d="M542.1 534.599H453.9C449.4 534.599 445.7 530.899 445.7 526.399C445.7 521.899 449.4 518.199 453.9 518.199H542.1C546.6 518.199 550.3 521.899 550.3 526.399C550.3 530.899 546.7 534.599 542.1 534.599Z" stroke="#3E3442" stroke-width="4" stroke-miterlimit="10" stroke-linecap="round" stroke-linejoin="round"/>
<path d="M507.5 526.399H537.1" stroke="#3E3442" stroke-width="6" stroke-miterlimit="10" stroke-linejoin="round"/>
<path d="M483.2 526.399H498" stroke="#3E3442" stroke-width="6" stroke-miterlimit="10" stroke-linejoin="round"/>
<path d="M459 526.399H475.3" stroke="#3E3442" stroke-width="6" stroke-miterlimit="10" stroke-linejoin="round"/>
<path d="M510 350.1H488.5V414.9H510V350.1Z" fill="#D35050"/>
<path d="M510 350.1H488.5V414.9H510V350.1Z" stroke="#3E3442" stroke-width="4" stroke-miterlimit="10" stroke-linecap="round" stroke-linejoin="round"/>
<path d="M499.8 405.799C501.899 405.799 503.6 404.098 503.6 401.999C503.6 399.901 501.899 398.199 499.8 398.199C497.701 398.199 496 399.901 496 401.999C496 404.098 497.701 405.799 499.8 405.799Z" stroke="#3E3442" stroke-width="4" stroke-miterlimit="10" stroke-linecap="round" stroke-linejoin="round"/>
<path d="M573.8 419.599C581.919 419.599 588.5 413.018 588.5 404.899C588.5 396.781 581.919 390.199 573.8 390.199C565.681 390.199 559.1 396.781 559.1 404.899C559.1 413.018 565.681 419.599 573.8 419.599Z" fill="#826776"/>
<path d="M573.8 419.599C581.919 419.599 588.5 413.018 588.5 404.899C588.5 396.781 581.919 390.199 573.8 390.199C565.681 390.199 559.1 396.781 559.1 404.899C559.1 413.018 565.681 419.599 573.8 419.599Z" stroke="#3E3442" stroke-width="2" stroke-miterlimit="10" stroke-linecap="round" stroke-linejoin="round"/>
<path d="M567.8 410.999L573.8 395.899L579.8 410.999H567.8Z" fill="#8CA85E"/>
<path d="M567.8 410.999L573.8 395.899L579.8 410.999H567.8Z" stroke="#3E3442" stroke-width="2" stroke-miterlimit="10" stroke-linecap="round" stroke-linejoin="round"/>
<path d="M748.7 750.9H774" stroke="#3E3442" stroke-width="10" stroke-miterlimit="10" stroke-linecap="round" stroke-linejoin="round"/>
<path d="M794 750.9H804.3" stroke="#3E3442" stroke-width="10" stroke-miterlimit="10" stroke-linecap="round" stroke-linejoin="round"/>
<path d="M322.3 750.9H712.2" stroke="#3E3442" stroke-width="10" stroke-miterlimit="10" stroke-linecap="round" stroke-linejoin="round"/>
<path d="M240.7 750.9H297.3" stroke="#3E3442" stroke-width="10" stroke-miterlimit="10" stroke-linecap="round" stroke-linejoin="round"/>
</g>
<defs>
<clipPath id="clip0_9_4599">
<rect width="1000" height="1000" fill="white"/>
</clipPath>
</defs>
</svg>
