<svg width="1000" height="1000" viewBox="0 0 1000 1000" fill="none" xmlns="http://www.w3.org/2000/svg">
<g clip-path="url(#clip0_9_4562)">
<path d="M1000 0H0V1000H1000V0Z"/>
<path opacity="0.12" d="M323.5 695.6C207.7 671.3 161.6 656 132.3 612C104.4 570.1 92.0999 502.9 120.7 465.2C141.7 437.5 167.5 448.4 202.8 417.6C210.4 411 215.9 405.2 220.5 398C255.4 343.1 167.4 266.7 192.2 215.9C200.1 199.8 265.5 189 396 168C424.5 163.4 446.3 160.7 474.2 167.4C527.5 180.2 539.2 236.1 565.4 231.5C589.5 227.2 584 183.3 617.6 160.1C662.5 129.2 734.7 164.5 739.8 167.1C803.7 199.3 826.5 265.2 854.9 351.2C890.9 460.3 919.7 544.3 877.6 621.1C842.3 685.5 780.4 712.5 747.2 726.6C659.7 763.6 546.9 742.5 323.5 695.6Z" fill="white"/>
<path d="M754.9 289L653.3 265L609.9 328.4L618.3 361.5L576.7 354.9L539.1 362.9L532.2 381.7C511.5 341.4 492.4 300.8 476.5 265C476.5 279 416.9 310.9 341.7 321C315.4 377 92 689.2 92 689.2L862.1 687.6L754.9 289Z" fill="#92CED7"/>
<path opacity="0.4" d="M518.7 355L544.1 404.6L559.1 413.1L584.9 410H620.5L653.3 445.1L675 440.3C675 440.3 689.7 439.4 701 438V379L593 319L518.7 355Z" fill="white"/>
<path opacity="0.14" d="M518.7 355L539 345.2L595.7 494.1C595.7 494.1 527.3 383 518.7 355Z" fill="#686868"/>
<path d="M518.7 355L544.1 404.6L559.1 413.1L584.9 410H620.5L653.3 445.1L675 440.3C675 440.3 689.7 439.4 701 438V379L593 319L518.7 355Z" stroke="#51B3C3" stroke-width="6" stroke-miterlimit="10" stroke-linecap="round" stroke-linejoin="round"/>
<path opacity="0.4" d="M313.5 368.7L329 391.8L416.9 373.7L462.2 410L501.4 399L539 395C515.7 350.4 494 304.7 476.4 265.1C476.4 279.1 416.8 311 341.6 321.1C337.3 330.5 327.2 347.3 313.5 368.7Z" fill="white"/>
<path d="M313.5 368.7L329 391.8L416.9 373.7L462.2 410L501.4 399L539 395C515.7 350.4 494 304.7 476.4 265.1C476.4 279.1 416.8 311 341.6 321.1C337.3 330.5 327.2 347.3 313.5 368.7Z" stroke="#51B3C3" stroke-width="6" stroke-miterlimit="10" stroke-linecap="round" stroke-linejoin="round"/>
<path d="M609.9 328.4L653.3 265L754.9 289L862 687.6L92 689.2C92 689.2 315.4 377 341.7 321C416.9 310.9 476.5 279 476.5 265C528 381 614 548.7 676 589.8" stroke="#51B3C3" stroke-width="6" stroke-miterlimit="10" stroke-linecap="round" stroke-linejoin="round"/>
<path opacity="0.14" d="M662.8 354.9L706.9 367.7L715 382L755.2 490.8L701 488.2V379L662.8 354.9Z" fill="#686868"/>
<path opacity="0.4" d="M711.5 337.5L731 327L757 367.1L785.1 401.3L754.9 289L653.3 265L623 309.2L636.8 319H682.2L711.5 337.5Z" fill="white"/>
<path d="M711.5 337.5L731 327L757 367.1L785.1 401.3L754.9 289L653.3 265L623 309.2L636.8 319H682.2L711.5 337.5Z" stroke="#51B3C3" stroke-width="6" stroke-miterlimit="10" stroke-linecap="round" stroke-linejoin="round"/>
<path d="M518.7 355L593 319L701 379V500.9" stroke="#51B3C3" stroke-width="6" stroke-miterlimit="10" stroke-linecap="round" stroke-linejoin="round"/>
<path d="M500.7 497.6C506.3 556.9 479.4 613.5 439.6 613.5C399.8 613.5 372.8 556.8 378.5 497.6C383.2 447.5 410.3 412.3 439.6 412.3C468.9 412.3 496 447.5 500.7 497.6Z" fill="#92CED7"/>
<path d="M500.7 497.6C506.3 556.9 479.4 613.5 439.6 613.5C399.8 613.5 372.8 556.8 378.5 497.6C383.2 447.5 410.3 412.3 439.6 412.3C468.9 412.3 496 447.5 500.7 497.6Z" stroke="#51B3C3" stroke-width="6" stroke-miterlimit="10" stroke-linecap="round" stroke-linejoin="round"/>
<path d="M439.6 465.6V687.6" stroke="#51B3C3" stroke-width="6" stroke-miterlimit="10" stroke-linecap="round" stroke-linejoin="round"/>
<path d="M462.2 561.7L439.6 584.3L416.9 561.7" stroke="#51B3C3" stroke-width="6" stroke-miterlimit="10" stroke-linecap="round" stroke-linejoin="round"/>
<path d="M462.2 529.6L439.6 552.3L416.9 529.6" stroke="#51B3C3" stroke-width="6" stroke-miterlimit="10" stroke-linecap="round" stroke-linejoin="round"/>
<path d="M462.2 497.6L439.6 520.3L416.9 497.6" stroke="#51B3C3" stroke-width="6" stroke-miterlimit="10" stroke-linecap="round" stroke-linejoin="round"/>
<path d="M462.2 465.6L439.6 488.2L416.9 465.6" stroke="#51B3C3" stroke-width="6" stroke-miterlimit="10" stroke-linecap="round" stroke-linejoin="round"/>
<path d="M424.5 572.9C428.4 603 409.8 631.7 382.3 631.7C354.8 631.7 336.3 603 340.1 572.9C343.4 547.5 362.1 529.6 382.3 529.6C402.5 529.6 421.2 547.5 424.5 572.9Z" fill="#92CED7"/>
<path d="M424.5 572.9C428.4 603 409.8 631.7 382.3 631.7C354.8 631.7 336.3 603 340.1 572.9C343.4 547.5 362.1 529.6 382.3 529.6C402.5 529.6 421.2 547.5 424.5 572.9Z" stroke="#51B3C3" stroke-width="6" stroke-miterlimit="10" stroke-linecap="round" stroke-linejoin="round"/>
<path d="M382.3 544.399V687.599" stroke="#51B3C3" stroke-width="6" stroke-miterlimit="10" stroke-linecap="round" stroke-linejoin="round"/>
<path d="M397.9 600.699L382.3 616.399L366.7 600.699" stroke="#51B3C3" stroke-width="6" stroke-miterlimit="10" stroke-linecap="round" stroke-linejoin="round"/>
<path d="M397.9 578.6L382.3 594.3L366.7 578.6" stroke="#51B3C3" stroke-width="6" stroke-miterlimit="10" stroke-linecap="round" stroke-linejoin="round"/>
<path d="M397.9 556.6L382.3 572.2L366.7 556.6" stroke="#51B3C3" stroke-width="6" stroke-miterlimit="10" stroke-linecap="round" stroke-linejoin="round"/>
<path d="M949.8 514.5C941.6 505 939.5 493.1 943.7 482.1C945.9 476.4 947.1 470.1 947.1 463.6C947.1 435.3 924.5 412.4 896.6 412.4C868.7 412.4 846 435.2 846 463.5C846 470 847.2 476.2 849.4 482C853.6 493 851.5 505 843.3 514.4C833.4 525.9 827.4 540.7 827.4 556.8C827.4 593.5 858.3 623.2 896.5 623.2C934.7 623.2 965.6 593.5 965.6 556.8C965.6 540.7 959.7 526 949.8 514.5Z" fill="#92CED7"/>
<path d="M949.8 514.5C941.6 505 939.5 493.1 943.7 482.1C945.9 476.4 947.1 470.1 947.1 463.6C947.1 435.3 924.5 412.4 896.6 412.4C868.7 412.4 846 435.2 846 463.5C846 470 847.2 476.2 849.4 482C853.6 493 851.5 505 843.3 514.4C833.4 525.9 827.4 540.7 827.4 556.8C827.4 593.5 858.3 623.2 896.5 623.2C934.7 623.2 965.6 593.5 965.6 556.8C965.6 540.7 959.7 526 949.8 514.5Z" stroke="#51B3C3" stroke-width="6" stroke-miterlimit="10" stroke-linecap="round" stroke-linejoin="round"/>
<path d="M896.5 446.5V689.2" stroke="#51B3C3" stroke-width="6" stroke-miterlimit="10" stroke-linecap="round" stroke-linejoin="round"/>
<path d="M921.5 573.5L896.5 598.5L871.5 573.5" stroke="#51B3C3" stroke-width="6" stroke-miterlimit="10" stroke-linecap="round" stroke-linejoin="round"/>
<path d="M921.5 538.2L896.5 563.2L871.5 538.2" stroke="#51B3C3" stroke-width="6" stroke-miterlimit="10" stroke-linecap="round" stroke-linejoin="round"/>
<path d="M921.5 502.9L896.5 527.8L871.5 502.9" stroke="#51B3C3" stroke-width="6" stroke-miterlimit="10" stroke-linecap="round" stroke-linejoin="round"/>
<path d="M921.5 467.5L896.5 492.5L871.5 467.5" stroke="#51B3C3" stroke-width="6" stroke-miterlimit="10" stroke-linecap="round" stroke-linejoin="round"/>
<path opacity="0.12" d="M153.9 270.8C138.2 267.5 119.3 294.5 111.4 315.2C97.5999 351.6 105.8 399.9 123 404.1C141.3 408.5 175.3 364.3 175.2 321C175.1 302.2 168.5 273.9 153.9 270.8Z" fill="white"/>
<path d="M940.1 689H76.7998V744.9L112.6 785.3L119.5 754L168.2 804.9C195.7 801.2 223.1 797.4 250.6 793.7C271.8 756.3 281.1 746.5 284.7 748C292.1 751 276.3 799.4 290.9 807.2C299.2 811.6 313 800.6 318.1 806.3C321.2 809.8 317.1 815.1 320.2 821.1C323.8 828.1 333.8 829.5 339.7 830.4C358.9 833.2 375.8 825.8 385.1 820.7C395.7 813.5 406.4 806.3 417 799.1C424.6 795.1 447.7 784.1 477.1 789.3C517.9 796.5 538.3 828.9 541.5 834.1C562.2 834.1 583 834.1 603.7 834.1C611.1 825.7 618.5 817.3 625.9 808.8C664.5 819.5 703 830.1 741.6 840.8C769.6 838 797.7 835.2 825.7 832.4C830.6 825.2 835.4 818 840.3 810.8L896.6 806.9C896.6 806.9 906.8 810.8 906.8 795.1C906.8 779.4 912.7 769.6 912.7 769.6C912.7 769.6 902.9 752 908.8 746.1C914.7 740.2 914.7 740.2 914.7 740.2L940.1 689Z" fill="white"/>
<path d="M940.1 689H76.7998" stroke="#534668" stroke-width="6" stroke-miterlimit="10" stroke-linecap="round" stroke-linejoin="round"/>
<path d="M478.8 689H559.7H636.8" stroke="#534668" stroke-width="6" stroke-miterlimit="10" stroke-linecap="round" stroke-linejoin="round"/>
<path d="M840.2 536.5L670.1 445.1L500.8 536.5L478.8 689H862.3L840.2 536.5Z" fill="#F4646C"/>
<path opacity="0.23" d="M653.3 689V536.5H500.8L478.8 689H653.3Z" fill="#F4646C"/>
<path d="M595.6 689.2C595.6 689.2 606.5 668.1 615.2 664.6C633.8 657.2 622.5 649.3 622.5 649.3C622.5 649.3 596.2 625.5 576.7 578.6C582.9 615.4 586.9 680.5 595.6 689.2Z" fill="#F4536D"/>
<path d="M497.3 536.5L478.8 689H490L508.5 536.5H497.3Z" fill="#FA8F97"/>
<path d="M500.8 536.5H840.2L670.1 445.1L500.8 536.5Z" fill="#F4646C"/>
<path opacity="0.7" d="M674.6 451.9L832 536.5H840.2L670.1 445.1L500.8 536.5H517.9L674.6 451.9Z" fill="#FA8F97"/>
<path d="M840.2 536.5L670.1 445.1L640.7 536.5L636.8 689H862.3L840.2 536.5Z" fill="#DD4A58"/>
<path opacity="0.4" d="M840.2 536.5L670.1 445.1L666.5 456.3L815.7 536.5L837.7 689H862.3L840.2 536.5Z" fill="#C42C49"/>
<path opacity="0.4" d="M678 449.3L670.1 445.1L640.7 536.5L636.8 689H646L649.9 536.5L678 449.3Z" fill="#C42C49"/>
<path opacity="0.41" d="M862.3 689L840.2 536.5H640.7L636.8 689H862.3Z" fill="#534668"/>
<path d="M840.2 536.5L670.1 445.1L640.7 536.5L636.8 689H862.3L840.2 536.5Z" stroke="#534668" stroke-width="6" stroke-miterlimit="10" stroke-linecap="round" stroke-linejoin="round"/>
<path d="M500.8 536.5H840.2L670.1 445.1L500.8 536.5Z" stroke="#534668" stroke-width="6" stroke-miterlimit="10" stroke-linecap="round" stroke-linejoin="round"/>
<path d="M565.7 536.5L550.6 689.2L593 689V641.9L565.7 536.5Z" fill="#534668"/>
<path d="M565.7 536.5L550.6 689.2L593 689V641.9L565.7 536.5Z" stroke="#534668" stroke-width="6" stroke-miterlimit="10" stroke-linecap="round" stroke-linejoin="round"/>
<path d="M565.7 536.5C565.7 536.5 583.4 621.1 615.1 652.9C597.3 660.8 593 689 593 689C593 689 581.9 666.8 574.7 626.2C571.3 607.2 565.7 536.5 565.7 536.5Z" fill="#FAB56A"/>
<g opacity="0.45">
<path opacity="0.45" d="M567.7 545.1C566.4 539.7 565.7 536.5 565.7 536.5C565.7 536.5 565.8 537.9 566 540.3C566.5 541.8 567.1 543.4 567.7 545.1Z" fill="#FAB56A"/>
<path opacity="0.45" d="M612.2 654.5C613.1 653.9 614.1 653.4 615.1 653C614.7 652.6 614.3 652.2 613.9 651.8C613.4 652.6 612.8 653.5 612.2 654.5Z" fill="#FAB56A"/>
<path opacity="0.45" d="M580.4 620.4C577.1 608.6 571.1 576.4 567.2 554.2C569.1 576.4 572.4 613.3 574.7 626.2C581.9 666.8 593 689 593 689C593 689 594.4 679.9 598.8 670.6C594 660.7 586.8 643.7 580.4 620.4Z" fill="#FAB56A"/>
</g>
<path d="M565.7 536.5C565.7 536.5 586.5 627.2 615.1 652.9C597.3 660.8 593 689 593 689C593 689 581.9 666.8 574.7 626.2C571.3 607.2 565.7 536.5 565.7 536.5Z" stroke="#534668" stroke-width="6" stroke-miterlimit="10" stroke-linecap="round" stroke-linejoin="round"/>
<path d="M840.2 536.5L670.1 445.1L500.8 536.5L478.8 689H862.3L840.2 536.5Z" stroke="#534668" stroke-width="6" stroke-miterlimit="10" stroke-linecap="round" stroke-linejoin="round"/>
<path d="M500.8 536.5H840.2L670.1 445.1L500.8 536.5Z" stroke="#534668" stroke-width="6" stroke-miterlimit="10" stroke-linecap="round" stroke-linejoin="round"/>
<path d="M288.4 689H200.4C192.7 689 186.4 682.7 186.4 675C186.4 667.3 192.7 661 200.4 661H288.4C296.1 661 302.4 667.3 302.4 675C302.4 682.7 296.2 689 288.4 689Z" fill="#A3533B"/>
<path opacity="0.42" d="M260.5 673.4C266.4 668.8 270.2 668.7 272.5 669.4C275.9 670.4 276.3 673.1 281.2 675.6C283.4 676.7 288.2 679.2 291.5 677.2C294.4 675.4 295.5 670.6 294.2 665.4" stroke="#534668" stroke-miterlimit="10" stroke-linecap="round" stroke-linejoin="round"/>
<path opacity="0.42" d="M213.2 669.2C218.9 671.6 223.9 679.1 229.3 681.1C232.3 682.2 235.9 682.3 251.2 676.8" stroke="#534668" stroke-miterlimit="10" stroke-linecap="round" stroke-linejoin="round"/>
<path opacity="0.42" d="M251.5 681.3C251.5 681.3 238.9 688.3 231.2 686.8" stroke="#534668" stroke-miterlimit="10" stroke-linecap="round" stroke-linejoin="round"/>
<path opacity="0.42" d="M268.6 676.1C268.6 676.1 256.2 679.9 256.2 684.4C256.2 688.9 264.4 689.6 271.8 689C279.2 688.5 285.2 685.5 281.4 681.7C277.6 677.8 274.1 673.9 268.6 676.1Z" stroke="#534668" stroke-miterlimit="10" stroke-linecap="round" stroke-linejoin="round"/>
<path opacity="0.46" d="M195.6 671.4C195.6 671.4 186.9 675.2 186.9 679.7C186.9 684.2 192.7 684.9 197.8 684.3C203 683.8 207.2 680.8 204.5 677C201.8 673.2 199.4 669.2 195.6 671.4Z" stroke="#A3533B" stroke-miterlimit="10" stroke-linecap="round" stroke-linejoin="round"/>
<path opacity="0.42" d="M216.1 679.9C216.1 679.9 212.2 681.6 212.2 683.6C212.2 685.6 214.8 685.9 217.1 685.7C219.4 685.5 221.3 684.2 220.1 682.5C218.9 680.7 217.9 678.9 216.1 679.9Z" stroke="#534668" stroke-miterlimit="10" stroke-linecap="round" stroke-linejoin="round"/>
<path opacity="0.42" d="M232.4 671.8C232.4 671.8 228.5 673.5 228.5 675.5C228.5 677.2 232.9 677.5 233.4 677.6C234 677.6 235.7 677.7 238.9 676.5C242.2 675.3 245.4 674.1 245.4 672.4C245.5 670.6 242.3 668.8 239.4 668.6C235.5 668.3 232.8 671.3 232.4 671.8Z" stroke="#534668" stroke-miterlimit="10" stroke-linecap="round" stroke-linejoin="round"/>
<path opacity="0.42" d="M269 678.4C269 678.4 263.1 681 263.1 684.1C263.1 686.3 267.9 686.9 270.6 687.3C273.3 687.7 275.3 688 276.4 686.8C277.7 685.3 276.9 682.3 275.4 680.5C273.1 677.7 269.3 678.3 269 678.4Z" stroke="#534668" stroke-miterlimit="10" stroke-linecap="round" stroke-linejoin="round"/>
<path opacity="0.42" d="M269.2 681.5C269.2 681.5 266.2 682.8 266.2 684.3C266.2 685.8 268.2 686.1 270 685.9C271.8 685.7 273.2 684.7 272.3 683.4C271.4 682.1 270.5 680.8 269.2 681.5Z" stroke="#534668" stroke-miterlimit="10" stroke-linecap="round" stroke-linejoin="round"/>
<path d="M288.4 689H200.4C192.7 689 186.4 682.7 186.4 675C186.4 667.3 192.7 661 200.4 661H288.4C296.1 661 302.4 667.3 302.4 675C302.4 682.7 296.2 689 288.4 689Z" stroke="#534668" stroke-width="6" stroke-miterlimit="10" stroke-linecap="round" stroke-linejoin="round"/>
<path d="M168.1 689V531.3" stroke="#534668" stroke-width="6" stroke-miterlimit="10" stroke-linecap="round" stroke-linejoin="round"/>
<path d="M153 512.5L162.9 528.2C165.5 532.4 170.9 532.4 173.5 528.2L183.4 512.5" stroke="#534668" stroke-width="6" stroke-miterlimit="10" stroke-linecap="round" stroke-linejoin="round"/>
<path d="M324 689V531.3" stroke="#534668" stroke-width="6" stroke-miterlimit="10" stroke-linecap="round" stroke-linejoin="round"/>
<path d="M308.8 512.5L318.7 528.2C321.3 532.4 326.7 532.4 329.3 528.2L339.2 512.5" stroke="#534668" stroke-width="6" stroke-miterlimit="10" stroke-linecap="round" stroke-linejoin="round"/>
<path d="M153 525H339.2" stroke="#534668" stroke-width="8" stroke-miterlimit="10" stroke-linecap="round" stroke-linejoin="round"/>
<path d="M224.2 636.8C227 641.4 228 641.6 227.6 650.6C226.8 668.1 234.9 676.3 244.6 678.8C256.1 681.8 261.7 678.4 266.5 674.1C286 656.7 269.2 634 267.4 632.4C267.4 639.3 266.9 648.9 262.4 650.2C265.4 637 254.7 623.4 244.5 619.3C250.1 632.7 241.2 638.5 245.3 654.4C242.6 643.6 228.4 637.4 224.2 636.8Z" fill="#FFB839"/>
<path opacity="0.47" d="M231.2 645.4C233.4 649 234.2 649.2 233.9 656.2C233.3 670 239.7 676.4 247.2 678.4C256.2 680.7 260.6 678.1 264.4 674.7C279.7 661 266.5 643.1 265.1 641.9C265.1 647.3 264.7 654.9 261.1 655.9C263.5 645.5 255 634.8 247 631.6C251.4 642.1 244.4 646.7 247.6 659.2C245.7 650.8 234.5 646 231.2 645.4Z" fill="#ED4307"/>
<path opacity="0.47" d="M230.6 649.6C232.8 653.2 230.1 658.8 233.2 665.2C239.7 678.2 239.6 676.6 247.2 678.5C256.2 680.8 260.6 678.2 264.4 674.8C279.7 661.1 266.5 643.2 265.1 642C265.1 647.4 264.7 655 261.1 656C263.5 645.6 258 634.9 250 631.7C252.1 640.9 244.4 646.8 247.6 659.3C245.7 650.8 233.9 650.1 230.6 649.6Z" fill="#FF4729"/>
<path opacity="0.46" d="M250.4 675.8C244 674.4 239.2 668.9 239.6 660.1C239.7 658.9 239.7 657.8 239.6 656.9C241.9 658.5 249.6 664 250.3 666.6V664.1C249.2 659.6 251.1 654 251.7 650.7C252 649.2 252.3 647.6 252.4 645.8C255.5 649.3 259.2 656.8 259.2 661.3L259 664.6C259 664.6 259.7 663.6 261.1 663C262.5 662.4 264.6 660.9 265.5 658.8C265.8 660.2 266 661.7 265.9 663.2C265.7 667.2 264 670.6 260.6 673.6C258.6 675.7 253.7 676.5 250.4 675.8Z" fill="#FFB839"/>
<path d="M212.1 574.5C213.7 590 228.3 605.2 246.1 605.2C263.9 605.2 278.5 590 280.1 574.5H212.1Z" fill="white"/>
<path d="M222.2 574.5H212.1C213.7 590 228.3 605.2 246.1 605.2C247.8 605.2 249.5 605.1 251.2 604.8C235.7 602.2 223.6 588.5 222.2 574.5Z" fill="#B2B2B2"/>
<path d="M212.1 574.5C213.7 590 228.3 605.2 246.1 605.2C263.9 605.2 278.5 590 280.1 574.5H212.1Z" stroke="#534668" stroke-width="6" stroke-miterlimit="10" stroke-linecap="round" stroke-linejoin="round"/>
<path d="M246.1 578.7C264.878 578.7 280.1 576.819 280.1 574.5C280.1 572.18 264.878 570.3 246.1 570.3C227.322 570.3 212.1 572.18 212.1 574.5C212.1 576.819 227.322 578.7 246.1 578.7Z" fill="#FAB56A"/>
<path d="M246.1 578.7C264.878 578.7 280.1 576.819 280.1 574.5C280.1 572.18 264.878 570.3 246.1 570.3C227.322 570.3 212.1 572.18 212.1 574.5C212.1 576.819 227.322 578.7 246.1 578.7Z" stroke="#534668" stroke-width="6" stroke-miterlimit="10" stroke-linecap="round" stroke-linejoin="round"/>
<path d="M212.1 578.8C214.475 578.8 216.4 576.875 216.4 574.5C216.4 572.125 214.475 570.2 212.1 570.2C209.725 570.2 207.8 572.125 207.8 574.5C207.8 576.875 209.725 578.8 212.1 578.8Z" stroke="#534668" stroke-width="6" stroke-miterlimit="10" stroke-linecap="round" stroke-linejoin="round"/>
<path d="M280 578.8C282.375 578.8 284.3 576.875 284.3 574.5C284.3 572.125 282.375 570.2 280 570.2C277.625 570.2 275.7 572.125 275.7 574.5C275.7 576.875 277.625 578.8 280 578.8Z" stroke="#534668" stroke-width="6" stroke-miterlimit="10" stroke-linecap="round" stroke-linejoin="round"/>
<path d="M211.2 570.2C208.6 555.5 215.9 540.1 246.1 540.1C276.3 540.1 283.5 555.5 281 570.2" stroke="#534668" stroke-width="4" stroke-miterlimit="10" stroke-linecap="round" stroke-linejoin="round"/>
<path d="M246.7 528.9C249.351 528.9 251.5 526.751 251.5 524.1C251.5 521.449 249.351 519.3 246.7 519.3C244.049 519.3 241.9 521.449 241.9 524.1C241.9 526.751 244.049 528.9 246.7 528.9Z" stroke="#534668" stroke-width="6" stroke-miterlimit="10" stroke-linecap="round" stroke-linejoin="round"/>
<path d="M241.9 528.9C244.551 528.9 246.7 526.751 246.7 524.1C246.7 521.449 244.551 519.3 241.9 519.3C239.249 519.3 237.1 521.449 237.1 524.1C237.1 526.751 239.249 528.9 241.9 528.9Z" stroke="#534668" stroke-width="6" stroke-miterlimit="10" stroke-linecap="round" stroke-linejoin="round"/>
<path d="M247.3 543C248.846 543 250.1 541.747 250.1 540.2C250.1 538.654 248.846 537.4 247.3 537.4C245.754 537.4 244.5 538.654 244.5 540.2C244.5 541.747 245.754 543 247.3 543Z" stroke="#534668" stroke-width="4" stroke-miterlimit="10" stroke-linecap="round" stroke-linejoin="round"/>
<path d="M243.3 543C244.846 543 246.1 541.747 246.1 540.2C246.1 538.654 244.846 537.4 243.3 537.4C241.754 537.4 240.5 538.654 240.5 540.2C240.5 541.747 241.754 543 243.3 543Z" stroke="#534668" stroke-width="4" stroke-miterlimit="10" stroke-linecap="round" stroke-linejoin="round"/>
<path d="M246.1 526.6C246.1 526.6 242.7 532.9 245.4 537.4C245.4 537.4 245.8 542.1 244.4 544.6C243 547.1 243.3 548 243.3 548.6" stroke="#534668" stroke-width="4" stroke-miterlimit="10" stroke-linecap="round" stroke-linejoin="round"/>
<path d="M200.4 689C208.132 689 214.4 682.732 214.4 675C214.4 667.268 208.132 661 200.4 661C192.668 661 186.4 667.268 186.4 675C186.4 682.732 192.668 689 200.4 689Z" fill="#B75A44"/>
<path d="M200.4 689C208.132 689 214.4 682.732 214.4 675C214.4 667.268 208.132 661 200.4 661C192.668 661 186.4 667.268 186.4 675C186.4 682.732 192.668 689 200.4 689Z" stroke="#534668" stroke-width="6" stroke-miterlimit="10" stroke-linecap="round" stroke-linejoin="round"/>
<path opacity="0.61" d="M203.1 681.7C202.2 682.3 201.2 682.7 200.1 682.7C196.7 682.7 194 679.5 194 675.5C194 671.5 196.7 668.3 200.1 668.3C203.5 668.3 206.2 671.5 206.2 675.5C206.2 677.1 205.8 678.6 205 679.8" stroke="#534668" stroke-miterlimit="10" stroke-linecap="round" stroke-linejoin="round"/>
<path opacity="0.61" d="M204.2 674.6C204.2 677 202.1 679.4 200.1 679.4C198.1 679.4 196.5 677.5 196.5 675.1C196.5 672.7 198.1 670.8 200.1 670.8C202.1 670.8 204.2 672.2 204.2 674.6Z" stroke="#534668" stroke-miterlimit="10" stroke-linecap="round" stroke-linejoin="round"/>
<path opacity="0.61" d="M200.1 676C199.3 676 198.7 675.3 198.7 674.5C198.7 673.7 199.3 673 200.1 673C200.1 673 201.4 672.9 201.7 673.8" stroke="#534668" stroke-miterlimit="10" stroke-linecap="round" stroke-linejoin="round"/>
</g>
<defs>
<clipPath id="clip0_9_4562">
<rect width="1000" height="1000" fill="white"/>
</clipPath>
</defs>
</svg>
