<svg width="1000" height="1000" viewBox="0 0 1000 1000" fill="none" xmlns="http://www.w3.org/2000/svg">
<g clip-path="url(#clip0_9_4573)">
<path d="M1000 0H0V1000H1000V0Z" fill="#"/>
<path d="M285.6 628.2C283.7 612 286.4 576 294.3 552.1C299.5 536.4 304.3 514.9 325.7 503C343.3 493.1 457.3 485 521.1 491.5C556.7 495.1 586.2 530 604.6 559C665.2 570.1 666.7 570.1 680.9 574.5C695.1 578.8 709 589.7 709 606C709 616.5 709 645.7 709 645.7H287.3C286.7 635.7 286.2 638.1 285.6 628.2Z" fill="#4DCBAB"/>
<path opacity="0.49" d="M681.9 571.4C667.7 567.1 666.2 567.1 605.6 555.9C587.2 526.9 557.7 492 522.1 488.4C458.3 481.9 344.3 490 326.7 499.9C321.9 502.6 318 505.8 314.6 509.2C314.6 509.2 314.7 509.2 314.7 509.1C332.3 499.2 446.3 491.1 510.1 497.6C543.6 501 574.1 532.2 592.8 560C595 563.3 598.5 565.5 602.4 566.2C656.7 576.2 656.1 576.3 669.9 580.5C684.1 584.8 698 595.7 698 612C698 618.7 698 633 698 642.4H710C710 642.4 710 613.2 710 602.7C710 586.6 696.1 575.7 681.9 571.4Z" fill="#4DCBAB"/>
<path opacity="0.21" d="M515 553.7V642.8" stroke="#72757C" stroke-width="3" stroke-miterlimit="10" stroke-linecap="round"/>
<path opacity="0.21" d="M375 553.7L372.7 642.8" stroke="#72757C" stroke-width="3" stroke-miterlimit="10" stroke-linecap="round"/>
<path opacity="0.2" d="M324.8 552.1C330 536.4 334.8 514.9 356.2 503C368.3 496.2 425.7 490.3 481.2 489.3C418.2 488.1 340.1 494.9 325.7 503C304.3 515 299.5 536.4 294.3 552.1C286.4 576 283.8 612 285.6 628.2C286.2 638.1 286.7 635.7 287.3 645.7H317.8C317.2 635.7 316.7 638.1 316.1 628.2C314.2 612 316.9 576 324.8 552.1Z" fill="#72757C"/>
<path d="M285.6 628.2C283.7 612 286.4 576 294.3 552.1C299.5 536.4 304.3 514.9 325.7 503C343.3 493.1 457.3 485 521.1 491.5C554.5 494.9 582.5 525.8 601 553.5C603.4 557 607.1 559.5 611.3 560.2C665.3 570.1 667.2 570.3 680.9 574.4C695.1 578.7 709 589.6 709 605.9C709 616.4 709 645.6 709 645.6H287.3C286.7 635.7 286.2 638.1 285.6 628.2Z" stroke="#135677" stroke-width="8" stroke-miterlimit="10" stroke-linecap="round" stroke-linejoin="round"/>
<path d="M515.1 559.3C507.7 535.4 494.9 514.6 485.6 501.5C498.5 502 509.9 502.9 519.7 504C549.3 507.5 573.7 535.5 590 560.5L515.1 559.3Z" fill="#FFC88D"/>
<path opacity="0.2" d="M530.2 539.5C524.7 529.5 532.6 517.5 543.9 518.6C546 518.8 548 519 550 519.3C551.7 519.5 553.4 519.8 555 520.2C544.4 511.7 532.5 505.6 519.7 504.1C509.9 502.9 498.4 502.1 485.6 501.6C494.9 514.7 507.7 535.5 515.1 559.4L540 559.8C537 552.5 533.6 545.7 530.2 539.5Z" fill="#FFBF73"/>
<path d="M515.1 559.3C507.7 535.4 494.9 514.6 485.6 501.5C498.5 502 509.9 502.9 519.7 504C549.3 507.5 573.7 535.5 590 560.5L515.1 559.3Z" stroke="#135677" stroke-width="8" stroke-miterlimit="10" stroke-linecap="round" stroke-linejoin="round"/>
<path d="M385 558.3L389.3 505.1C412.6 503.4 438.3 502.6 461.9 502.7C464.4 502.7 466.9 502.7 469.3 502.8C478.3 514 493.1 534.7 501.8 559L385 558.3Z" fill="#FFC88D"/>
<path opacity="0.2" d="M403.1 532C403.8 522.8 412.2 515.5 422.7 514.9C440 514 457.9 513.6 474.8 513.7C475.7 513.7 476.6 513.7 477.6 513.7C474.6 509.4 471.8 505.7 469.3 502.7C466.8 502.7 464.4 502.6 461.9 502.6C438.3 502.5 412.6 503.3 389.3 505L385 558.2L401 558.3L403.1 532Z" fill="#FFBF73"/>
<path d="M385 558.3L389.3 505.1C412.6 503.4 438.3 502.6 461.9 502.7C464.4 502.7 466.9 502.7 469.3 502.8C478.3 514 493.1 534.7 501.8 559L385 558.3Z" stroke="#135677" stroke-width="8" stroke-miterlimit="10" stroke-linecap="round" stroke-linejoin="round"/>
<path d="M356.8 658.8H283.4C273.5 658.8 265.4 650.7 265.4 640.8C265.4 630.9 273.5 622.8 283.4 622.8H356.8V658.8Z" fill="white"/>
<path opacity="0.2" d="M286.8 645.6C286.8 635.7 294.9 627.6 304.8 627.6H356.7V622.9H283.3C273.4 622.9 265.3 631 265.3 640.9C265.3 650.8 273.4 658.9 283.3 658.9H292.7C289.1 655.6 286.8 650.8 286.8 645.6Z" fill="#72757C"/>
<path d="M356.8 658.8H283.4C273.5 658.8 265.4 650.7 265.4 640.8C265.4 630.9 273.5 622.8 283.4 622.8H356.8V658.8V658.8Z" stroke="#135677" stroke-width="8" stroke-miterlimit="10" stroke-linecap="round" stroke-linejoin="round"/>
<path d="M712 658.8H651.9V628.8H712C720.3 628.8 727 635.5 727 643.8C727 652.1 720.3 658.8 712 658.8Z" fill="white"/>
<path opacity="0.2" d="M655.8 640.4H716C720.3 640.4 724.2 642.3 727 645.2C727 644.7 727.1 644.3 727.1 643.8C727.1 635.5 720.4 628.8 712.1 628.8H652V658.8H656V640.4H655.8Z" fill="#72757C"/>
<path d="M712 658.8H651.9V628.8H712C720.3 628.8 727 635.5 727 643.8C727 652.1 720.3 658.8 712 658.8Z" stroke="#135677" stroke-width="8" stroke-miterlimit="10" stroke-linecap="round" stroke-linejoin="round"/>
<path d="M575.4 642.8H389.9V658.8H575.4V642.8Z" fill="white"/>
<path opacity="0.2" d="M575.4 642.8H389.9V650.8H575.4V642.8Z" fill="#72757C"/>
<path d="M575.4 642.8H389.9V658.8H575.4V642.8Z" stroke="#135677" stroke-width="8" stroke-miterlimit="10" stroke-linecap="round" stroke-linejoin="round"/>
<path d="M620.3 699.6C644.877 699.6 664.8 679.676 664.8 655.1C664.8 630.523 644.877 610.6 620.3 610.6C595.723 610.6 575.8 630.523 575.8 655.1C575.8 679.676 595.723 699.6 620.3 699.6Z" fill="#82818C"/>
<path d="M620.3 699.6C644.877 699.6 664.8 679.676 664.8 655.1C664.8 630.523 644.877 610.6 620.3 610.6C595.723 610.6 575.8 630.523 575.8 655.1C575.8 679.676 595.723 699.6 620.3 699.6Z" stroke="#135677" stroke-width="8" stroke-miterlimit="10" stroke-linecap="round" stroke-linejoin="round"/>
<path d="M620.3 679.2C633.61 679.2 644.4 668.41 644.4 655.1C644.4 641.79 633.61 631 620.3 631C606.99 631 596.2 641.79 596.2 655.1C596.2 668.41 606.99 679.2 620.3 679.2Z" fill="white"/>
<path d="M620.3 679.2C633.61 679.2 644.4 668.41 644.4 655.1C644.4 641.79 633.61 631 620.3 631C606.99 631 596.2 641.79 596.2 655.1C596.2 668.41 606.99 679.2 620.3 679.2Z" stroke="#135677" stroke-width="8" stroke-miterlimit="10" stroke-linecap="round" stroke-linejoin="round"/>
<path d="M620.3 662.5C624.387 662.5 627.7 659.187 627.7 655.1C627.7 651.013 624.387 647.7 620.3 647.7C616.213 647.7 612.9 651.013 612.9 655.1C612.9 659.187 616.213 662.5 620.3 662.5Z" stroke="#135677" stroke-width="8" stroke-miterlimit="10" stroke-linecap="round" stroke-linejoin="round"/>
<path d="M362.4 699.6C386.977 699.6 406.9 679.676 406.9 655.1C406.9 630.523 386.977 610.6 362.4 610.6C337.823 610.6 317.9 630.523 317.9 655.1C317.9 679.676 337.823 699.6 362.4 699.6Z" fill="#82818C"/>
<path d="M362.4 699.6C386.977 699.6 406.9 679.676 406.9 655.1C406.9 630.523 386.977 610.6 362.4 610.6C337.823 610.6 317.9 630.523 317.9 655.1C317.9 679.676 337.823 699.6 362.4 699.6Z" stroke="#135677" stroke-width="8" stroke-miterlimit="10" stroke-linecap="round" stroke-linejoin="round"/>
<path d="M362.4 679.2C375.71 679.2 386.5 668.41 386.5 655.1C386.5 641.79 375.71 631 362.4 631C349.09 631 338.3 641.79 338.3 655.1C338.3 668.41 349.09 679.2 362.4 679.2Z" fill="white"/>
<path d="M362.4 679.2C375.71 679.2 386.5 668.41 386.5 655.1C386.5 641.79 375.71 631 362.4 631C349.09 631 338.3 641.79 338.3 655.1C338.3 668.41 349.09 679.2 362.4 679.2Z" stroke="#135677" stroke-width="8" stroke-miterlimit="10" stroke-linecap="round" stroke-linejoin="round"/>
<path d="M362.4 662.5C366.487 662.5 369.8 659.187 369.8 655.1C369.8 651.013 366.487 647.7 362.4 647.7C358.313 647.7 355 651.013 355 655.1C355 659.187 358.313 662.5 362.4 662.5Z" stroke="#135677" stroke-width="8" stroke-miterlimit="10" stroke-linecap="round" stroke-linejoin="round"/>
<path d="M376.8 504.1C350.3 506.9 336.7 510.4 332.7 512.8C317 522.4 312.2 538.6 308 552.9C307.5 554.5 307.1 556 306.6 557.5C306.5 557.9 306.4 558.3 306.2 558.7H373.1L376.8 504.1Z" fill="#FFC88D"/>
<path opacity="0.2" d="M323.3 558.1C327.5 543.8 332.2 527.6 348 518C351.1 516.1 360.1 513.6 376.4 511.3L376.9 504.1C350.4 506.9 336.8 510.4 332.8 512.8C317.1 522.4 312.3 538.6 308.1 552.9C307.6 554.5 307.2 556 306.7 557.5C306.6 557.9 306.5 558.3 306.3 558.7H323C323.2 558.5 323.2 558.3 323.3 558.1Z" fill="#FFBF73"/>
<path d="M376.8 504.1C350.3 506.9 336.7 510.4 332.7 512.8C317 522.4 312.2 538.6 308 552.9C307.5 554.5 307.1 556 306.6 557.5C306.5 557.9 306.4 558.3 306.2 558.7H373.1L376.8 504.1Z" stroke="#135677" stroke-width="8" stroke-miterlimit="10" stroke-linecap="round" stroke-linejoin="round"/>
<path d="M717.1 597.8C718.2 604.6 711.9 610.2 701.9 611.1C692.4 612 681.5 607.8 679.7 601C678.6 594.2 690 588.1 699.6 587.2C709.1 586.3 715.8 591 717.1 597.8Z" fill="white"/>
<path d="M717.1 597.8C718.2 604.6 711.9 610.2 701.9 611.1C692.4 612 681.5 607.8 679.7 601C678.6 594.2 690 588.1 699.6 587.2C709.1 586.3 715.8 591 717.1 597.8Z" stroke="#135677" stroke-width="8" stroke-miterlimit="10" stroke-linecap="round" stroke-linejoin="round"/>
<path d="M544 576.7H525" stroke="#135677" stroke-width="8" stroke-miterlimit="10" stroke-linecap="round" stroke-linejoin="round"/>
<path d="M407 576.7H387" stroke="#135677" stroke-width="8" stroke-miterlimit="10" stroke-linecap="round" stroke-linejoin="round"/>
<path d="M209.8 388.5C201.1 381.5 188.8 381.5 180.1 388.5C150.1 412.9 114 460.8 118.3 516.4C119.4 529.9 122.7 542.8 127.4 555.1C127.7 556 128.1 556.8 128.6 557.7C160.2 616.8 229.7 616.8 261.2 557.7C261.6 556.9 262 556 262.4 555.1C267.2 542.9 270.5 529.9 271.5 516.4C276 460.7 239.9 412.9 209.8 388.5Z" fill="#FFBF73"/>
<path opacity="0.43" d="M234.7 566.7C199.7 566.7 171.4 522.4 171.4 467.7C171.4 432.4 183.2 401.5 201 383.9C193.9 382 186.2 383.5 180.2 388.4C150.2 412.8 114.1 460.7 118.4 516.3C119.5 529.8 122.8 542.7 127.5 555C127.8 555.9 128.2 556.7 128.7 557.6C160.3 616.7 229.8 616.7 261.3 557.6C261.3 557.6 261.3 557.5 261.4 557.5C253.3 563.4 244.2 566.7 234.7 566.7Z" fill="#FFBF73"/>
<path d="M195 698V485" stroke="#135677" stroke-width="8" stroke-miterlimit="10" stroke-linecap="round" stroke-linejoin="round"/>
<path d="M98 700.9C98 669.5 123.5 644 154.9 644C186.3 644 211.8 669.5 211.8 700.9" fill="#FFBF73"/>
<path opacity="0.43" d="M170.5 646.2C165.6 644.8 160.4 644 155 644C123.6 644 98.1001 669.5 98.1001 700.9H129.2C129.1 674.9 146.6 652.9 170.5 646.2Z" fill="#FFBF73"/>
<path d="M215.8 455.5C212.2 459.6 211.3 465.1 212.7 470C217.3 470.2 221.9 468.4 225.1 464.7C228.7 460.6 229.6 455.1 228.2 450.2C223.7 450 219.1 451.8 215.8 455.5Z" stroke="#135677" stroke-width="6" stroke-miterlimit="10" stroke-linecap="round" stroke-linejoin="round"/>
<path d="M188 425.1C187.8 430.4 190.4 435.1 194.5 438C198.1 435.3 200.5 431.2 200.7 426.4C200.9 421.1 198.3 416.4 194.2 413.5C190.6 416.1 188.2 420.3 188 425.1Z" stroke="#135677" stroke-width="6" stroke-miterlimit="10" stroke-linecap="round" stroke-linejoin="round"/>
<path d="M158.1 471.3C159.5 476.6 163.4 480.5 168.3 482.1C171 478.4 172.2 473.6 170.9 468.8C169.5 463.5 165.6 459.6 160.7 458C157.9 461.7 156.8 466.6 158.1 471.3Z" stroke="#135677" stroke-width="6" stroke-miterlimit="10" stroke-linecap="round" stroke-linejoin="round"/>
<path d="M92.2001 589.3C91.0001 594.6 92.8001 599.9 96.4001 603.6C100.5 601.6 103.7 597.8 104.8 593C106 587.7 104.2 582.4 100.6 578.7C96.4001 580.7 93.3001 584.5 92.2001 589.3Z" stroke="#135677" stroke-width="6" stroke-miterlimit="10" stroke-linecap="round" stroke-linejoin="round"/>
<path d="M164.3 538C164.3 538 173.5 562.7 195 564.3" stroke="#135677" stroke-width="8" stroke-miterlimit="10" stroke-linecap="round" stroke-linejoin="round"/>
<path d="M194.9 538.6C194.9 538.6 214.4 530.2 216 509.7" stroke="#135677" stroke-width="8" stroke-miterlimit="10" stroke-linecap="round" stroke-linejoin="round"/>
<path d="M143.8 697C138.7 682.8 125.1 672.7 109.1 672.7C93.0999 672.7 79.5999 682.8 74.3999 697H143.8Z" fill="#FFBF73"/>
<path d="M121.7 674.9C117.8 673.5 113.6 672.7 109.1 672.7C93.0999 672.7 79.5999 682.8 74.3999 697H99.4999C103.3 686.7 111.4 678.6 121.7 674.9Z" fill="#FFAA58"/>
<path d="M155 666V697" stroke="#135677" stroke-width="8" stroke-miterlimit="10" stroke-linecap="round" stroke-linejoin="round"/>
<path d="M174.7 678L155 697" stroke="#135677" stroke-width="8" stroke-miterlimit="10" stroke-linecap="round" stroke-linejoin="round"/>
<path d="M887 442V697" stroke="#135677" stroke-width="6" stroke-miterlimit="10" stroke-linecap="round" stroke-linejoin="round"/>
<path d="M841.7 397.1L887 442.3" stroke="#135677" stroke-width="6" stroke-miterlimit="10" stroke-linecap="round" stroke-linejoin="round"/>
<path d="M871.456 441.82L836.455 406.818L822.595 420.678L857.597 455.679L871.456 441.82Z" fill="#FFBF73"/>
<path d="M871.456 441.82L836.455 406.818L822.595 420.678L857.597 455.679L871.456 441.82Z" stroke="#135677" stroke-width="6" stroke-miterlimit="10" stroke-linecap="round" stroke-linejoin="round"/>
<path d="M899.7 490V697" stroke="#135677" stroke-width="6" stroke-miterlimit="10" stroke-linecap="round" stroke-linejoin="round"/>
<path d="M944.9 445.1L899.7 490.3" stroke="#135677" stroke-width="6" stroke-miterlimit="10" stroke-linecap="round" stroke-linejoin="round"/>
<path d="M929.042 503.611L964.043 468.609L950.184 454.75L915.183 489.752L929.042 503.611Z" fill="#FFBF73"/>
<path d="M929.042 503.611L964.043 468.609L950.184 454.75L915.183 489.752L929.042 503.611Z" stroke="#135677" stroke-width="6" stroke-miterlimit="10" stroke-linecap="round" stroke-linejoin="round"/>
<path d="M225.3 546.7C221.7 549.9 220.2 554.7 220.9 559.2C224.9 559.9 229.2 558.8 232.5 555.8C236.1 552.6 237.6 547.8 236.9 543.3C232.8 542.7 228.5 543.8 225.3 546.7Z" stroke="#135677" stroke-width="6" stroke-miterlimit="10" stroke-linecap="round" stroke-linejoin="round"/>
<path d="M267.5 699.7H68.1001" stroke="#135677" stroke-width="8" stroke-miterlimit="10" stroke-linecap="round" stroke-linejoin="round"/>
<path d="M748.3 699.7H283" stroke="#135677" stroke-width="8" stroke-miterlimit="10" stroke-linecap="round" stroke-linejoin="round"/>
<path d="M782.7 699.7H769" stroke="#135677" stroke-width="8" stroke-miterlimit="10" stroke-linecap="round" stroke-linejoin="round"/>
<path d="M931.9 699.7H799.8" stroke="#135677" stroke-width="8" stroke-miterlimit="10" stroke-linecap="round" stroke-linejoin="round"/>
<path opacity="0.15" d="M562.7 315.7L584.1 339.6" stroke="#135677" stroke-width="4" stroke-miterlimit="10" stroke-linecap="round" stroke-linejoin="round"/>
<g opacity="0.6">
<g opacity="0.15">
<g opacity="0.15">
<path opacity="0.15" d="M261.3 329H108.8V700.6H261.3V329Z" stroke="#02283F" stroke-width="4" stroke-miterlimit="10" stroke-linecap="round" stroke-linejoin="round"/>
</g>
<path opacity="0.15" d="M142 698V329" stroke="#02283F" stroke-width="4" stroke-miterlimit="10" stroke-linecap="round" stroke-linejoin="round"/>
<path opacity="0.15" d="M230 698V329" stroke="#02283F" stroke-width="4" stroke-miterlimit="10" stroke-linecap="round" stroke-linejoin="round"/>
<path opacity="0.15" d="M186 698V329" stroke="#02283F" stroke-width="4" stroke-miterlimit="10" stroke-linecap="round" stroke-linejoin="round"/>
<path opacity="0.15" d="M109 368H262" stroke="#02283F" stroke-width="4" stroke-miterlimit="10" stroke-linecap="round" stroke-linejoin="round"/>
<path opacity="0.15" d="M109 387H262" stroke="#02283F" stroke-width="4" stroke-miterlimit="10" stroke-linecap="round" stroke-linejoin="round"/>
<path opacity="0.15" d="M109 434H262" stroke="#02283F" stroke-width="4" stroke-miterlimit="10" stroke-linecap="round" stroke-linejoin="round"/>
<path opacity="0.15" d="M109 455H262" stroke="#02283F" stroke-width="4" stroke-miterlimit="10" stroke-linecap="round" stroke-linejoin="round"/>
<path opacity="0.15" d="M109 504H262" stroke="#02283F" stroke-width="4" stroke-miterlimit="10" stroke-linecap="round" stroke-linejoin="round"/>
<path opacity="0.15" d="M109 525H262" stroke="#02283F" stroke-width="4" stroke-miterlimit="10" stroke-linecap="round" stroke-linejoin="round"/>
<path opacity="0.15" d="M109 576H262" stroke="#02283F" stroke-width="4" stroke-miterlimit="10" stroke-linecap="round" stroke-linejoin="round"/>
<path opacity="0.15" d="M109 596H262" stroke="#02283F" stroke-width="4" stroke-miterlimit="10" stroke-linecap="round" stroke-linejoin="round"/>
<path opacity="0.15" d="M109 639H262" stroke="#02283F" stroke-width="4" stroke-miterlimit="10" stroke-linecap="round" stroke-linejoin="round"/>
<path opacity="0.15" d="M109 658H262" stroke="#02283F" stroke-width="4" stroke-miterlimit="10" stroke-linecap="round" stroke-linejoin="round"/>
<path opacity="0.15" d="M230.5 296.4H142.8V329.8H230.5V296.4Z" stroke="#02283F" stroke-width="4" stroke-miterlimit="10" stroke-linecap="round" stroke-linejoin="round"/>
<path opacity="0.15" d="M210.1 263H163.2V296.4H210.1V263Z" stroke="#02283F" stroke-width="4" stroke-miterlimit="10" stroke-linecap="round" stroke-linejoin="round"/>
</g>
<g opacity="0.15">
<path opacity="0.15" d="M748.3 699.7H686.5V327.6H849.5V699.7H801.5" stroke="#02283F" stroke-width="4" stroke-miterlimit="10" stroke-linecap="round" stroke-linejoin="round"/>
<path opacity="0.15" d="M727.3 361.7H707.6V396.3H727.3V361.7Z" stroke="#02283F" stroke-width="4" stroke-miterlimit="10" stroke-linecap="round" stroke-linejoin="round"/>
<path opacity="0.15" d="M761 361.7H741.3V396.3H761V361.7Z" stroke="#02283F" stroke-width="4" stroke-miterlimit="10" stroke-linecap="round" stroke-linejoin="round"/>
<path opacity="0.15" d="M794.7 361.7H775V396.3H794.7V361.7Z" stroke="#02283F" stroke-width="4" stroke-miterlimit="10" stroke-linecap="round" stroke-linejoin="round"/>
<path opacity="0.15" d="M828.5 361.7H808.8V396.3H828.5V361.7Z" stroke="#02283F" stroke-width="4" stroke-miterlimit="10" stroke-linecap="round" stroke-linejoin="round"/>
<path opacity="0.15" d="M727.3 413.7H707.6V448.3H727.3V413.7Z" stroke="#02283F" stroke-width="4" stroke-miterlimit="10" stroke-linecap="round" stroke-linejoin="round"/>
<path opacity="0.15" d="M761 413.7H741.3V448.3H761V413.7Z" stroke="#02283F" stroke-width="4" stroke-miterlimit="10" stroke-linecap="round" stroke-linejoin="round"/>
<path opacity="0.15" d="M794.7 413.7H775V448.3H794.7V413.7Z" stroke="#02283F" stroke-width="4" stroke-miterlimit="10" stroke-linecap="round" stroke-linejoin="round"/>
<path opacity="0.15" d="M828.5 413.7H808.8V448.3H828.5V413.7Z" stroke="#02283F" stroke-width="4" stroke-miterlimit="10" stroke-linecap="round" stroke-linejoin="round"/>
<path opacity="0.15" d="M727.3 512.7H707.6V542.3H727.3V512.7Z" stroke="#02283F" stroke-width="4" stroke-miterlimit="10" stroke-linecap="round" stroke-linejoin="round"/>
<path opacity="0.15" d="M761 512.7H741.3V542.3H761V512.7Z" stroke="#02283F" stroke-width="4" stroke-miterlimit="10" stroke-linecap="round" stroke-linejoin="round"/>
<path opacity="0.15" d="M794.7 512.7H775V542.3H794.7V512.7Z" stroke="#02283F" stroke-width="4" stroke-miterlimit="10" stroke-linecap="round" stroke-linejoin="round"/>
<path opacity="0.15" d="M828.5 512.7H808.8V542.3H828.5V512.7Z" stroke="#02283F" stroke-width="4" stroke-miterlimit="10" stroke-linecap="round" stroke-linejoin="round"/>
<path opacity="0.15" d="M727.3 618.1H707.6V647.7H727.3V618.1Z" stroke="#02283F" stroke-width="4" stroke-miterlimit="10" stroke-linecap="round" stroke-linejoin="round"/>
<path opacity="0.15" d="M761 618.1H741.3V647.7H761V618.1Z" stroke="#02283F" stroke-width="4" stroke-miterlimit="10" stroke-linecap="round" stroke-linejoin="round"/>
<path opacity="0.15" d="M794.7 618.1H775V647.7H794.7V618.1Z" stroke="#02283F" stroke-width="4" stroke-miterlimit="10" stroke-linecap="round" stroke-linejoin="round"/>
<path opacity="0.15" d="M828.5 618.1H808.8V647.7H828.5V618.1Z" stroke="#02283F" stroke-width="4" stroke-miterlimit="10" stroke-linecap="round" stroke-linejoin="round"/>
<path opacity="0.15" d="M707 478H828" stroke="#02283F" stroke-width="4" stroke-miterlimit="10" stroke-linecap="round" stroke-linejoin="round"/>
<path opacity="0.15" d="M707 494H828" stroke="#02283F" stroke-width="4" stroke-miterlimit="10" stroke-linecap="round" stroke-linejoin="round"/>
<path opacity="0.15" d="M707 562H828" stroke="#02283F" stroke-width="4" stroke-miterlimit="10" stroke-linecap="round" stroke-linejoin="round"/>
<path opacity="0.15" d="M707 579H828" stroke="#02283F" stroke-width="4" stroke-miterlimit="10" stroke-linecap="round" stroke-linejoin="round"/>
<path opacity="0.15" d="M707 596H828" stroke="#02283F" stroke-width="4" stroke-miterlimit="10" stroke-linecap="round" stroke-linejoin="round"/>
<path opacity="0.15" d="M828 292H717.4V327.6H828V292Z" stroke="#02283F" stroke-width="4" stroke-miterlimit="10" stroke-linecap="round" stroke-linejoin="round"/>
<path opacity="0.15" d="M804.1 256.4H741.3V292H804.1V256.4Z" stroke="#02283F" stroke-width="4" stroke-miterlimit="10" stroke-linecap="round" stroke-linejoin="round"/>
<path opacity="0.15" d="M771 256V200" stroke="#02283F" stroke-width="4" stroke-miterlimit="10" stroke-linecap="round" stroke-linejoin="round"/>
</g>
<g opacity="0.15">
<path opacity="0.15" d="M604.7 700H520.6V339.1L562.7 293.2L604.7 339.1V700Z" stroke="#02283F" stroke-width="4" stroke-miterlimit="10" stroke-linecap="round" stroke-linejoin="round"/>
<path opacity="0.15" d="M675.2 700H604.7V409.1C604.7 368.5 631.4 361.9 675.2 340.8V700Z" stroke="#02283F" stroke-width="4" stroke-miterlimit="10" stroke-linecap="round" stroke-linejoin="round"/>
<g opacity="0.15">
<g opacity="0.15">
<g opacity="0.15">
<path opacity="0.15" d="M630 620V638" stroke="#02283F" stroke-width="4" stroke-miterlimit="10" stroke-linejoin="round"/>
<path opacity="0.15" d="M649 620V638" stroke="#02283F" stroke-width="4" stroke-miterlimit="10" stroke-linejoin="round"/>
</g>
</g>
<g opacity="0.15">
<g opacity="0.15">
<path opacity="0.15" d="M630 582V600" stroke="#02283F" stroke-width="4" stroke-miterlimit="10" stroke-linejoin="round"/>
<path opacity="0.15" d="M649 582V600" stroke="#02283F" stroke-width="4" stroke-miterlimit="10" stroke-linejoin="round"/>
</g>
</g>
<g opacity="0.15">
<g opacity="0.15">
<path opacity="0.15" d="M630 544V562" stroke="#02283F" stroke-width="4" stroke-miterlimit="10" stroke-linejoin="round"/>
<path opacity="0.15" d="M649 544V562" stroke="#02283F" stroke-width="4" stroke-miterlimit="10" stroke-linejoin="round"/>
</g>
</g>
<g opacity="0.15">
<g opacity="0.15">
<path opacity="0.15" d="M630 506V524" stroke="#02283F" stroke-width="4" stroke-miterlimit="10" stroke-linejoin="round"/>
<path opacity="0.15" d="M649 506V524" stroke="#02283F" stroke-width="4" stroke-miterlimit="10" stroke-linejoin="round"/>
</g>
</g>
<g opacity="0.15">
<g opacity="0.15">
<path opacity="0.15" d="M630 468V486" stroke="#02283F" stroke-width="4" stroke-miterlimit="10" stroke-linejoin="round"/>
<path opacity="0.15" d="M649 468V486" stroke="#02283F" stroke-width="4" stroke-miterlimit="10" stroke-linejoin="round"/>
</g>
</g>
<g opacity="0.15">
<g opacity="0.15">
<path opacity="0.15" d="M630 430V448" stroke="#02283F" stroke-width="4" stroke-miterlimit="10" stroke-linejoin="round"/>
<path opacity="0.15" d="M649 430V448" stroke="#02283F" stroke-width="4" stroke-miterlimit="10" stroke-linejoin="round"/>
</g>
</g>
<g opacity="0.15">
<g opacity="0.15">
<path opacity="0.15" d="M630 392V410" stroke="#02283F" stroke-width="4" stroke-miterlimit="10" stroke-linejoin="round"/>
<path opacity="0.15" d="M649 392V410" stroke="#02283F" stroke-width="4" stroke-miterlimit="10" stroke-linejoin="round"/>
</g>
</g>
</g>
<path opacity="0.15" d="M449.8 700H520.3V409.1C520.3 368.5 493.6 361.9 449.8 340.8V700Z" stroke="#02283F" stroke-width="4" stroke-miterlimit="10" stroke-linecap="round" stroke-linejoin="round"/>
<g opacity="0.15">
<g opacity="0.15">
<g opacity="0.15">
<path opacity="0.15" d="M492 620V638" stroke="#02283F" stroke-width="4" stroke-miterlimit="10" stroke-linejoin="round"/>
<path opacity="0.15" d="M474 620V638" stroke="#02283F" stroke-width="4" stroke-miterlimit="10" stroke-linejoin="round"/>
</g>
</g>
<g opacity="0.15">
<g opacity="0.15">
<path opacity="0.15" d="M492 582V600" stroke="#02283F" stroke-width="4" stroke-miterlimit="10" stroke-linejoin="round"/>
<path opacity="0.15" d="M474 582V600" stroke="#02283F" stroke-width="4" stroke-miterlimit="10" stroke-linejoin="round"/>
</g>
</g>
<g opacity="0.15">
<g opacity="0.15">
<path opacity="0.15" d="M492 544V562" stroke="#02283F" stroke-width="4" stroke-miterlimit="10" stroke-linejoin="round"/>
<path opacity="0.15" d="M474 544V562" stroke="#02283F" stroke-width="4" stroke-miterlimit="10" stroke-linejoin="round"/>
</g>
</g>
<g opacity="0.15">
<g opacity="0.15">
<path opacity="0.15" d="M492 506V524" stroke="#02283F" stroke-width="4" stroke-miterlimit="10" stroke-linejoin="round"/>
<path opacity="0.15" d="M474 506V524" stroke="#02283F" stroke-width="4" stroke-miterlimit="10" stroke-linejoin="round"/>
</g>
</g>
<g opacity="0.15">
<g opacity="0.15">
<path opacity="0.15" d="M492 468V486" stroke="#02283F" stroke-width="4" stroke-miterlimit="10" stroke-linejoin="round"/>
<path opacity="0.15" d="M474 468V486" stroke="#02283F" stroke-width="4" stroke-miterlimit="10" stroke-linejoin="round"/>
</g>
</g>
<g opacity="0.15">
<g opacity="0.15">
<path opacity="0.15" d="M492 430V448" stroke="#02283F" stroke-width="4" stroke-miterlimit="10" stroke-linejoin="round"/>
<path opacity="0.15" d="M474 430V448" stroke="#02283F" stroke-width="4" stroke-miterlimit="10" stroke-linejoin="round"/>
</g>
</g>
<g opacity="0.15">
<g opacity="0.15">
<path opacity="0.15" d="M492 392V410" stroke="#02283F" stroke-width="4" stroke-miterlimit="10" stroke-linejoin="round"/>
<path opacity="0.15" d="M474 392V410" stroke="#02283F" stroke-width="4" stroke-miterlimit="10" stroke-linejoin="round"/>
</g>
</g>
</g>
<path opacity="0.15" d="M546 352V611" stroke="#02283F" stroke-width="4" stroke-miterlimit="10" stroke-linecap="round" stroke-linejoin="round"/>
<path opacity="0.15" d="M582 352V611" stroke="#02283F" stroke-width="4" stroke-miterlimit="10" stroke-linecap="round" stroke-linejoin="round"/>
<g opacity="0.15">
<g opacity="0.15">
<path opacity="0.15" d="M534.6 604H590.1" stroke="#02283F" stroke-width="4" stroke-miterlimit="10" stroke-linecap="round" stroke-linejoin="round"/>
</g>
<g opacity="0.15">
<path opacity="0.15" d="M534.6 566H590.1" stroke="#02283F" stroke-width="4" stroke-miterlimit="10" stroke-linecap="round" stroke-linejoin="round"/>
</g>
<g opacity="0.15">
<path opacity="0.15" d="M534.6 528H590.1" stroke="#02283F" stroke-width="4" stroke-miterlimit="10" stroke-linecap="round" stroke-linejoin="round"/>
</g>
<g opacity="0.15">
<path opacity="0.15" d="M534.6 490H590.1" stroke="#02283F" stroke-width="4" stroke-miterlimit="10" stroke-linecap="round" stroke-linejoin="round"/>
</g>
<g opacity="0.15">
<path opacity="0.15" d="M534.6 452H590.1" stroke="#02283F" stroke-width="4" stroke-miterlimit="10" stroke-linecap="round" stroke-linejoin="round"/>
</g>
<g opacity="0.15">
<path opacity="0.15" d="M534.6 414H590.1" stroke="#02283F" stroke-width="4" stroke-miterlimit="10" stroke-linecap="round" stroke-linejoin="round"/>
</g>
<g opacity="0.15">
<path opacity="0.15" d="M534.6 376H590.1" stroke="#02283F" stroke-width="4" stroke-miterlimit="10" stroke-linecap="round" stroke-linejoin="round"/>
</g>
</g>
</g>
<g opacity="0.15">
<path opacity="0.15" d="M433.9 293.2H286.8V699.7H433.9V293.2Z" stroke="#02283F" stroke-width="4" stroke-miterlimit="10" stroke-linecap="round" stroke-linejoin="round"/>
<path opacity="0.15" d="M323.7 323.4H306.4V612H323.7V323.4Z" stroke="#02283F" stroke-width="4" stroke-miterlimit="10" stroke-linecap="round" stroke-linejoin="round"/>
<path opacity="0.15" d="M354.3 323.4H337V612H354.3V323.4Z" stroke="#02283F" stroke-width="4" stroke-miterlimit="10" stroke-linecap="round" stroke-linejoin="round"/>
<path opacity="0.15" d="M385 323.4H367.7V612H385V323.4Z" stroke="#02283F" stroke-width="4" stroke-miterlimit="10" stroke-linecap="round" stroke-linejoin="round"/>
<path opacity="0.15" d="M415.6 323.4H398.3V612H415.6V323.4Z" stroke="#02283F" stroke-width="4" stroke-miterlimit="10" stroke-linecap="round" stroke-linejoin="round"/>
<path opacity="0.15" d="M415.6 252H367.7V293.2H415.6V252Z" stroke="#02283F" stroke-width="4" stroke-miterlimit="10" stroke-linecap="round" stroke-linejoin="round"/>
<path opacity="0.15" d="M390 252V216" stroke="#02283F" stroke-width="4" stroke-miterlimit="10" stroke-linecap="round" stroke-linejoin="round"/>
<path opacity="0.15" d="M349.9 266.3H304.5V293.2H349.9V266.3Z" stroke="#02283F" stroke-width="4" stroke-miterlimit="10" stroke-linecap="round" stroke-linejoin="round"/>
</g>
</g>
<path d="M500 154.6V177.7" stroke="#CCE1EA" stroke-width="4" stroke-miterlimit="10" stroke-linecap="round" stroke-linejoin="round"/>
<path d="M479.2 158.3L487.1 180" stroke="#CCE1EA" stroke-width="4" stroke-miterlimit="10" stroke-linecap="round" stroke-linejoin="round"/>
<path d="M460.8 168.8L475.7 186.6" stroke="#CCE1EA" stroke-width="4" stroke-miterlimit="10" stroke-linecap="round" stroke-linejoin="round"/>
<path d="M447.2 185.1L467.3 196.6" stroke="#CCE1EA" stroke-width="4" stroke-miterlimit="10" stroke-linecap="round" stroke-linejoin="round"/>
<path d="M440 204.899L462.8 208.999" stroke="#CCE1EA" stroke-width="4" stroke-miterlimit="10" stroke-linecap="round" stroke-linejoin="round"/>
<path d="M440 226.1L462.8 222.1" stroke="#CCE1EA" stroke-width="4" stroke-miterlimit="10" stroke-linecap="round" stroke-linejoin="round"/>
<path d="M447.2 245.999L467.3 234.399" stroke="#CCE1EA" stroke-width="4" stroke-miterlimit="10" stroke-linecap="round" stroke-linejoin="round"/>
<path d="M460.8 262.2L475.7 244.5" stroke="#CCE1EA" stroke-width="4" stroke-miterlimit="10" stroke-linecap="round" stroke-linejoin="round"/>
<path d="M479.2 272.8L487.1 251" stroke="#CCE1EA" stroke-width="4" stroke-miterlimit="10" stroke-linecap="round" stroke-linejoin="round"/>
<path d="M500 276.4V253.3" stroke="#CCE1EA" stroke-width="4" stroke-miterlimit="10" stroke-linecap="round" stroke-linejoin="round"/>
<path d="M520.8 272.8L512.9 251" stroke="#CCE1EA" stroke-width="4" stroke-miterlimit="10" stroke-linecap="round" stroke-linejoin="round"/>
<path d="M539.2 262.2L524.3 244.5" stroke="#CCE1EA" stroke-width="4" stroke-miterlimit="10" stroke-linecap="round" stroke-linejoin="round"/>
<path d="M552.8 245.999L532.7 234.399" stroke="#CCE1EA" stroke-width="4" stroke-miterlimit="10" stroke-linecap="round" stroke-linejoin="round"/>
<path d="M560 226.1L537.2 222.1" stroke="#CCE1EA" stroke-width="4" stroke-miterlimit="10" stroke-linecap="round" stroke-linejoin="round"/>
<path d="M560 204.899L537.2 208.999" stroke="#CCE1EA" stroke-width="4" stroke-miterlimit="10" stroke-linecap="round" stroke-linejoin="round"/>
<path d="M552.8 185.1L532.7 196.6" stroke="#CCE1EA" stroke-width="4" stroke-miterlimit="10" stroke-linecap="round" stroke-linejoin="round"/>
<path d="M539.2 168.8L524.3 186.6" stroke="#CCE1EA" stroke-width="4" stroke-miterlimit="10" stroke-linecap="round" stroke-linejoin="round"/>
<path d="M520.8 158.3L512.9 180" stroke="#CCE1EA" stroke-width="4" stroke-miterlimit="10" stroke-linecap="round" stroke-linejoin="round"/>
<path d="M500 236.3C511.487 236.3 520.8 226.988 520.8 215.5C520.8 204.013 511.487 194.7 500 194.7C488.512 194.7 479.2 204.013 479.2 215.5C479.2 226.988 488.512 236.3 500 236.3Z" fill="#FFBF73"/>
<path d="M808.7 163.5C808.8 162.8 808.8 162 808.8 161.3C808.8 146.5 796.8 134.6 782.1 134.6C776.4 134.6 771.1 136.4 766.8 139.4C763.6 128.2 753.3 120.1 741.1 120.1C739 120.1 737 120.3 735 120.8C728.3 113.3 718.5 108.5 707.6 108.5C688.9 108.5 673.4 122.5 671.1 140.6C670.7 140.6 670.3 140.5 669.8 140.5C658.3 140.5 649 149.8 649 161.3C649 162 649 162.8 649.1 163.5H808.7V163.5Z" stroke="#CCE1EA" stroke-width="4" stroke-miterlimit="10" stroke-linecap="round" stroke-linejoin="round"/>
<path d="M191.2 174.1C186.7 167.7 179.2 163.4 170.7 163.4C168.7 163.4 166.8 163.6 165 164.1C158.7 157.1 149.5 152.6 139.3 152.6C121.8 152.6 107.3 165.7 105.2 182.6C104.8 182.6 104.4 182.5 104 182.5C93.3 182.5 84.5 191.2 84.5 202C84.5 202.7 84.5 203.4 84.6 204.1H186.5" stroke="#CCE1EA" stroke-width="4" stroke-miterlimit="10" stroke-linecap="round" stroke-linejoin="round"/>
<path d="M272 212.3H358.1" stroke="#CCE1EA" stroke-width="4" stroke-miterlimit="10" stroke-linecap="round" stroke-linejoin="round"/>
<path d="M331.2 234.4H352.1" stroke="#CCE1EA" stroke-width="4" stroke-miterlimit="10" stroke-linecap="round" stroke-linejoin="round"/>
<path d="M307.3 222.1H345.9" stroke="#CCE1EA" stroke-width="4" stroke-miterlimit="10" stroke-linecap="round" stroke-linejoin="round"/>
<path d="M527.4 93H592.6" stroke="#CCE1EA" stroke-width="4" stroke-miterlimit="10" stroke-linecap="round" stroke-linejoin="round"/>
<path d="M562.7 108.5H640" stroke="#CCE1EA" stroke-width="4" stroke-miterlimit="10" stroke-linecap="round" stroke-linejoin="round"/>
<path d="M257.1 204.1C258 202 258.5 199.7 258.5 197.2C258.5 187.9 251.1 180.4 241.9 180.4C239.6 180.4 237.4 180.9 235.4 181.7C231.7 171.8 222.2 164.7 211.1 164.7C197.8 164.7 186.9 174.7 185.4 187.5C184.3 187.3 183.2 187.1 182.1 187.1C173.7 187.1 167 193.7 167 201.8C167 202.5 167.1 203.3 167.2 204H257.1V204.1Z" stroke="#CCE1EA" stroke-width="4" stroke-miterlimit="10" stroke-linecap="round" stroke-linejoin="round"/>
</g>
<defs>
<clipPath id="clip0_9_4573">
<rect width="1000" height="1000" fill="white"/>
</clipPath>
</defs>
</svg>
